<?xml version="1.0" encoding="utf-8" standalone="no"?>
<!DOCTYPE svg PUBLIC "-//W3C//DTD SVG 1.1//EN"
  "http://www.w3.org/Graphics/SVG/1.1/DTD/svg11.dtd">
<svg xmlns:xlink="http://www.w3.org/1999/xlink" width="874.303125pt" height="332.554687pt" viewBox="0 0 874.303125 332.554687" xmlns="http://www.w3.org/2000/svg" version="1.1">
 <metadata>
  <rdf:RDF xmlns:dc="http://purl.org/dc/elements/1.1/" xmlns:cc="http://creativecommons.org/ns#" xmlns:rdf="http://www.w3.org/1999/02/22-rdf-syntax-ns#">
   <cc:Work>
    <dc:type rdf:resource="http://purl.org/dc/dcmitype/StillImage"/>
    <dc:date>2025-05-29T17:35:23.826497</dc:date>
    <dc:format>image/svg+xml</dc:format>
    <dc:creator>
     <cc:Agent>
      <dc:title>Matplotlib v3.10.0, https://matplotlib.org/</dc:title>
     </cc:Agent>
    </dc:creator>
   </cc:Work>
  </rdf:RDF>
 </metadata>
 <defs>
  <style type="text/css">*{stroke-linejoin: round; stroke-linecap: butt}</style>
 </defs>
 <g id="figure_1">
  <g id="patch_1">
   <path d="M 0 332.554687 
L 874.303125 332.554687 
L 874.303125 0 
L 0 0 
z
" style="fill: #ffffff"/>
  </g>
  <g id="axes_1">
   <g id="patch_2">
    <path d="M 30.103125 294.998437 
L 867.103125 294.998437 
L 867.103125 17.798437 
L 30.103125 17.798437 
z
" style="fill: #ffffff"/>
   </g>
   <g id="matplotlib.axis_1">
    <g id="xtick_1">
     <g id="line2d_1">
      <defs>
       <path id="ma04c1cbb7d" d="M 0 0 
L 0 3.5 
" style="stroke: #000000; stroke-width: 0.8"/>
      </defs>
      <g>
       <use xlink:href="#ma04c1cbb7d" x="68.14858" y="294.998437" style="stroke: #000000; stroke-width: 0.8"/>
      </g>
     </g>
     <g id="text_1">
      <!-- 2020-07-01 -->
      <g transform="translate(39.090767 309.596875) scale(0.1 -0.1)">
       <defs>
        <path id="DejaVuSans-32" d="M 1228 531 
L 3431 531 
L 3431 0 
L 469 0 
L 469 531 
Q 828 903 1448 1529 
Q 2069 2156 2228 2338 
Q 2531 2678 2651 2914 
Q 2772 3150 2772 3378 
Q 2772 3750 2511 3984 
Q 2250 4219 1831 4219 
Q 1534 4219 1204 4116 
Q 875 4013 500 3803 
L 500 4441 
Q 881 4594 1212 4672 
Q 1544 4750 1819 4750 
Q 2544 4750 2975 4387 
Q 3406 4025 3406 3419 
Q 3406 3131 3298 2873 
Q 3191 2616 2906 2266 
Q 2828 2175 2409 1742 
Q 1991 1309 1228 531 
z
" transform="scale(0.015625)"/>
        <path id="DejaVuSans-30" d="M 2034 4250 
Q 1547 4250 1301 3770 
Q 1056 3291 1056 2328 
Q 1056 1369 1301 889 
Q 1547 409 2034 409 
Q 2525 409 2770 889 
Q 3016 1369 3016 2328 
Q 3016 3291 2770 3770 
Q 2525 4250 2034 4250 
z
M 2034 4750 
Q 2819 4750 3233 4129 
Q 3647 3509 3647 2328 
Q 3647 1150 3233 529 
Q 2819 -91 2034 -91 
Q 1250 -91 836 529 
Q 422 1150 422 2328 
Q 422 3509 836 4129 
Q 1250 4750 2034 4750 
z
" transform="scale(0.015625)"/>
        <path id="DejaVuSans-2d" d="M 313 2009 
L 1997 2009 
L 1997 1497 
L 313 1497 
L 313 2009 
z
" transform="scale(0.015625)"/>
        <path id="DejaVuSans-37" d="M 525 4666 
L 3525 4666 
L 3525 4397 
L 1831 0 
L 1172 0 
L 2766 4134 
L 525 4134 
L 525 4666 
z
" transform="scale(0.015625)"/>
        <path id="DejaVuSans-31" d="M 794 531 
L 1825 531 
L 1825 4091 
L 703 3866 
L 703 4441 
L 1819 4666 
L 2450 4666 
L 2450 531 
L 3481 531 
L 3481 0 
L 794 0 
L 794 531 
z
" transform="scale(0.015625)"/>
       </defs>
       <use xlink:href="#DejaVuSans-32"/>
       <use xlink:href="#DejaVuSans-30" transform="translate(63.623047 0)"/>
       <use xlink:href="#DejaVuSans-32" transform="translate(127.246094 0)"/>
       <use xlink:href="#DejaVuSans-30" transform="translate(190.869141 0)"/>
       <use xlink:href="#DejaVuSans-2d" transform="translate(254.492188 0)"/>
       <use xlink:href="#DejaVuSans-30" transform="translate(290.576172 0)"/>
       <use xlink:href="#DejaVuSans-37" transform="translate(354.199219 0)"/>
       <use xlink:href="#DejaVuSans-2d" transform="translate(417.822266 0)"/>
       <use xlink:href="#DejaVuSans-30" transform="translate(453.90625 0)"/>
       <use xlink:href="#DejaVuSans-31" transform="translate(517.529297 0)"/>
      </g>
     </g>
    </g>
    <g id="xtick_2">
     <g id="line2d_2">
      <g>
       <use xlink:href="#ma04c1cbb7d" x="181.717101" y="294.998437" style="stroke: #000000; stroke-width: 0.8"/>
      </g>
     </g>
     <g id="text_2">
      <!-- 2020-09-11 -->
      <g transform="translate(152.659288 309.596875) scale(0.1 -0.1)">
       <defs>
        <path id="DejaVuSans-39" d="M 703 97 
L 703 672 
Q 941 559 1184 500 
Q 1428 441 1663 441 
Q 2288 441 2617 861 
Q 2947 1281 2994 2138 
Q 2813 1869 2534 1725 
Q 2256 1581 1919 1581 
Q 1219 1581 811 2004 
Q 403 2428 403 3163 
Q 403 3881 828 4315 
Q 1253 4750 1959 4750 
Q 2769 4750 3195 4129 
Q 3622 3509 3622 2328 
Q 3622 1225 3098 567 
Q 2575 -91 1691 -91 
Q 1453 -91 1209 -44 
Q 966 3 703 97 
z
M 1959 2075 
Q 2384 2075 2632 2365 
Q 2881 2656 2881 3163 
Q 2881 3666 2632 3958 
Q 2384 4250 1959 4250 
Q 1534 4250 1286 3958 
Q 1038 3666 1038 3163 
Q 1038 2656 1286 2365 
Q 1534 2075 1959 2075 
z
" transform="scale(0.015625)"/>
       </defs>
       <use xlink:href="#DejaVuSans-32"/>
       <use xlink:href="#DejaVuSans-30" transform="translate(63.623047 0)"/>
       <use xlink:href="#DejaVuSans-32" transform="translate(127.246094 0)"/>
       <use xlink:href="#DejaVuSans-30" transform="translate(190.869141 0)"/>
       <use xlink:href="#DejaVuSans-2d" transform="translate(254.492188 0)"/>
       <use xlink:href="#DejaVuSans-30" transform="translate(290.576172 0)"/>
       <use xlink:href="#DejaVuSans-39" transform="translate(354.199219 0)"/>
       <use xlink:href="#DejaVuSans-2d" transform="translate(417.822266 0)"/>
       <use xlink:href="#DejaVuSans-31" transform="translate(453.90625 0)"/>
       <use xlink:href="#DejaVuSans-31" transform="translate(517.529297 0)"/>
      </g>
     </g>
    </g>
    <g id="xtick_3">
     <g id="line2d_3">
      <g>
       <use xlink:href="#ma04c1cbb7d" x="295.285622" y="294.998437" style="stroke: #000000; stroke-width: 0.8"/>
      </g>
     </g>
     <g id="text_3">
      <!-- 2020-11-20 -->
      <g transform="translate(266.227809 309.596875) scale(0.1 -0.1)">
       <use xlink:href="#DejaVuSans-32"/>
       <use xlink:href="#DejaVuSans-30" transform="translate(63.623047 0)"/>
       <use xlink:href="#DejaVuSans-32" transform="translate(127.246094 0)"/>
       <use xlink:href="#DejaVuSans-30" transform="translate(190.869141 0)"/>
       <use xlink:href="#DejaVuSans-2d" transform="translate(254.492188 0)"/>
       <use xlink:href="#DejaVuSans-31" transform="translate(290.576172 0)"/>
       <use xlink:href="#DejaVuSans-31" transform="translate(354.199219 0)"/>
       <use xlink:href="#DejaVuSans-2d" transform="translate(417.822266 0)"/>
       <use xlink:href="#DejaVuSans-32" transform="translate(453.90625 0)"/>
       <use xlink:href="#DejaVuSans-30" transform="translate(517.529297 0)"/>
      </g>
     </g>
    </g>
    <g id="xtick_4">
     <g id="line2d_4">
      <g>
       <use xlink:href="#ma04c1cbb7d" x="408.854143" y="294.998437" style="stroke: #000000; stroke-width: 0.8"/>
      </g>
     </g>
     <g id="text_4">
      <!-- 2021-02-04 -->
      <g transform="translate(379.79633 309.596875) scale(0.1 -0.1)">
       <defs>
        <path id="DejaVuSans-34" d="M 2419 4116 
L 825 1625 
L 2419 1625 
L 2419 4116 
z
M 2253 4666 
L 3047 4666 
L 3047 1625 
L 3713 1625 
L 3713 1100 
L 3047 1100 
L 3047 0 
L 2419 0 
L 2419 1100 
L 313 1100 
L 313 1709 
L 2253 4666 
z
" transform="scale(0.015625)"/>
       </defs>
       <use xlink:href="#DejaVuSans-32"/>
       <use xlink:href="#DejaVuSans-30" transform="translate(63.623047 0)"/>
       <use xlink:href="#DejaVuSans-32" transform="translate(127.246094 0)"/>
       <use xlink:href="#DejaVuSans-31" transform="translate(190.869141 0)"/>
       <use xlink:href="#DejaVuSans-2d" transform="translate(254.492188 0)"/>
       <use xlink:href="#DejaVuSans-30" transform="translate(290.576172 0)"/>
       <use xlink:href="#DejaVuSans-32" transform="translate(354.199219 0)"/>
       <use xlink:href="#DejaVuSans-2d" transform="translate(417.822266 0)"/>
       <use xlink:href="#DejaVuSans-30" transform="translate(453.90625 0)"/>
       <use xlink:href="#DejaVuSans-34" transform="translate(517.529297 0)"/>
      </g>
     </g>
    </g>
    <g id="xtick_5">
     <g id="line2d_5">
      <g>
       <use xlink:href="#ma04c1cbb7d" x="522.422664" y="294.998437" style="stroke: #000000; stroke-width: 0.8"/>
      </g>
     </g>
     <g id="text_5">
      <!-- 2021-04-19 -->
      <g transform="translate(493.364851 309.596875) scale(0.1 -0.1)">
       <use xlink:href="#DejaVuSans-32"/>
       <use xlink:href="#DejaVuSans-30" transform="translate(63.623047 0)"/>
       <use xlink:href="#DejaVuSans-32" transform="translate(127.246094 0)"/>
       <use xlink:href="#DejaVuSans-31" transform="translate(190.869141 0)"/>
       <use xlink:href="#DejaVuSans-2d" transform="translate(254.492188 0)"/>
       <use xlink:href="#DejaVuSans-30" transform="translate(290.576172 0)"/>
       <use xlink:href="#DejaVuSans-34" transform="translate(354.199219 0)"/>
       <use xlink:href="#DejaVuSans-2d" transform="translate(417.822266 0)"/>
       <use xlink:href="#DejaVuSans-31" transform="translate(453.90625 0)"/>
       <use xlink:href="#DejaVuSans-39" transform="translate(517.529297 0)"/>
      </g>
     </g>
    </g>
    <g id="xtick_6">
     <g id="line2d_6">
      <g>
       <use xlink:href="#ma04c1cbb7d" x="635.991185" y="294.998437" style="stroke: #000000; stroke-width: 0.8"/>
      </g>
     </g>
     <g id="text_6">
      <!-- 2021-06-29 -->
      <g transform="translate(606.933372 309.596875) scale(0.1 -0.1)">
       <defs>
        <path id="DejaVuSans-36" d="M 2113 2584 
Q 1688 2584 1439 2293 
Q 1191 2003 1191 1497 
Q 1191 994 1439 701 
Q 1688 409 2113 409 
Q 2538 409 2786 701 
Q 3034 994 3034 1497 
Q 3034 2003 2786 2293 
Q 2538 2584 2113 2584 
z
M 3366 4563 
L 3366 3988 
Q 3128 4100 2886 4159 
Q 2644 4219 2406 4219 
Q 1781 4219 1451 3797 
Q 1122 3375 1075 2522 
Q 1259 2794 1537 2939 
Q 1816 3084 2150 3084 
Q 2853 3084 3261 2657 
Q 3669 2231 3669 1497 
Q 3669 778 3244 343 
Q 2819 -91 2113 -91 
Q 1303 -91 875 529 
Q 447 1150 447 2328 
Q 447 3434 972 4092 
Q 1497 4750 2381 4750 
Q 2619 4750 2861 4703 
Q 3103 4656 3366 4563 
z
" transform="scale(0.015625)"/>
       </defs>
       <use xlink:href="#DejaVuSans-32"/>
       <use xlink:href="#DejaVuSans-30" transform="translate(63.623047 0)"/>
       <use xlink:href="#DejaVuSans-32" transform="translate(127.246094 0)"/>
       <use xlink:href="#DejaVuSans-31" transform="translate(190.869141 0)"/>
       <use xlink:href="#DejaVuSans-2d" transform="translate(254.492188 0)"/>
       <use xlink:href="#DejaVuSans-30" transform="translate(290.576172 0)"/>
       <use xlink:href="#DejaVuSans-36" transform="translate(354.199219 0)"/>
       <use xlink:href="#DejaVuSans-2d" transform="translate(417.822266 0)"/>
       <use xlink:href="#DejaVuSans-32" transform="translate(453.90625 0)"/>
       <use xlink:href="#DejaVuSans-39" transform="translate(517.529297 0)"/>
      </g>
     </g>
    </g>
    <g id="xtick_7">
     <g id="line2d_7">
      <g>
       <use xlink:href="#ma04c1cbb7d" x="749.559706" y="294.998437" style="stroke: #000000; stroke-width: 0.8"/>
      </g>
     </g>
     <g id="text_7">
      <!-- 2021-09-09 -->
      <g transform="translate(720.501893 309.596875) scale(0.1 -0.1)">
       <use xlink:href="#DejaVuSans-32"/>
       <use xlink:href="#DejaVuSans-30" transform="translate(63.623047 0)"/>
       <use xlink:href="#DejaVuSans-32" transform="translate(127.246094 0)"/>
       <use xlink:href="#DejaVuSans-31" transform="translate(190.869141 0)"/>
       <use xlink:href="#DejaVuSans-2d" transform="translate(254.492188 0)"/>
       <use xlink:href="#DejaVuSans-30" transform="translate(290.576172 0)"/>
       <use xlink:href="#DejaVuSans-39" transform="translate(354.199219 0)"/>
       <use xlink:href="#DejaVuSans-2d" transform="translate(417.822266 0)"/>
       <use xlink:href="#DejaVuSans-30" transform="translate(453.90625 0)"/>
       <use xlink:href="#DejaVuSans-39" transform="translate(517.529297 0)"/>
      </g>
     </g>
    </g>
    <g id="xtick_8">
     <g id="line2d_8">
      <g>
       <use xlink:href="#ma04c1cbb7d" x="863.128227" y="294.998437" style="stroke: #000000; stroke-width: 0.8"/>
      </g>
     </g>
    </g>
    <g id="text_8">
     <!-- date -->
     <g transform="translate(437.328125 323.275) scale(0.1 -0.1)">
      <defs>
       <path id="DejaVuSans-64" d="M 2906 2969 
L 2906 4863 
L 3481 4863 
L 3481 0 
L 2906 0 
L 2906 525 
Q 2725 213 2448 61 
Q 2172 -91 1784 -91 
Q 1150 -91 751 415 
Q 353 922 353 1747 
Q 353 2572 751 3078 
Q 1150 3584 1784 3584 
Q 2172 3584 2448 3432 
Q 2725 3281 2906 2969 
z
M 947 1747 
Q 947 1113 1208 752 
Q 1469 391 1925 391 
Q 2381 391 2643 752 
Q 2906 1113 2906 1747 
Q 2906 2381 2643 2742 
Q 2381 3103 1925 3103 
Q 1469 3103 1208 2742 
Q 947 2381 947 1747 
z
" transform="scale(0.015625)"/>
       <path id="DejaVuSans-61" d="M 2194 1759 
Q 1497 1759 1228 1600 
Q 959 1441 959 1056 
Q 959 750 1161 570 
Q 1363 391 1709 391 
Q 2188 391 2477 730 
Q 2766 1069 2766 1631 
L 2766 1759 
L 2194 1759 
z
M 3341 1997 
L 3341 0 
L 2766 0 
L 2766 531 
Q 2569 213 2275 61 
Q 1981 -91 1556 -91 
Q 1019 -91 701 211 
Q 384 513 384 1019 
Q 384 1609 779 1909 
Q 1175 2209 1959 2209 
L 2766 2209 
L 2766 2266 
Q 2766 2663 2505 2880 
Q 2244 3097 1772 3097 
Q 1472 3097 1187 3025 
Q 903 2953 641 2809 
L 641 3341 
Q 956 3463 1253 3523 
Q 1550 3584 1831 3584 
Q 2591 3584 2966 3190 
Q 3341 2797 3341 1997 
z
" transform="scale(0.015625)"/>
       <path id="DejaVuSans-74" d="M 1172 4494 
L 1172 3500 
L 2356 3500 
L 2356 3053 
L 1172 3053 
L 1172 1153 
Q 1172 725 1289 603 
Q 1406 481 1766 481 
L 2356 481 
L 2356 0 
L 1766 0 
Q 1100 0 847 248 
Q 594 497 594 1153 
L 594 3053 
L 172 3053 
L 172 3500 
L 594 3500 
L 594 4494 
L 1172 4494 
z
" transform="scale(0.015625)"/>
       <path id="DejaVuSans-65" d="M 3597 1894 
L 3597 1613 
L 953 1613 
Q 991 1019 1311 708 
Q 1631 397 2203 397 
Q 2534 397 2845 478 
Q 3156 559 3463 722 
L 3463 178 
Q 3153 47 2828 -22 
Q 2503 -91 2169 -91 
Q 1331 -91 842 396 
Q 353 884 353 1716 
Q 353 2575 817 3079 
Q 1281 3584 2069 3584 
Q 2775 3584 3186 3129 
Q 3597 2675 3597 1894 
z
M 3022 2063 
Q 3016 2534 2758 2815 
Q 2500 3097 2075 3097 
Q 1594 3097 1305 2825 
Q 1016 2553 972 2059 
L 3022 2063 
z
" transform="scale(0.015625)"/>
      </defs>
      <use xlink:href="#DejaVuSans-64"/>
      <use xlink:href="#DejaVuSans-61" transform="translate(63.476562 0)"/>
      <use xlink:href="#DejaVuSans-74" transform="translate(124.755859 0)"/>
      <use xlink:href="#DejaVuSans-65" transform="translate(163.964844 0)"/>
     </g>
    </g>
   </g>
   <g id="matplotlib.axis_2">
    <g id="ytick_1">
     <g id="line2d_9">
      <defs>
       <path id="m39b7c71922" d="M 0 0 
L -3.5 0 
" style="stroke: #000000; stroke-width: 0.8"/>
      </defs>
      <g>
       <use xlink:href="#m39b7c71922" x="30.103125" y="272.541114" style="stroke: #000000; stroke-width: 0.8"/>
      </g>
     </g>
     <g id="text_9">
      <!-- 1.0 -->
      <g transform="translate(7.2 276.340333) scale(0.1 -0.1)">
       <defs>
        <path id="DejaVuSans-2e" d="M 684 794 
L 1344 794 
L 1344 0 
L 684 0 
L 684 794 
z
" transform="scale(0.015625)"/>
       </defs>
       <use xlink:href="#DejaVuSans-31"/>
       <use xlink:href="#DejaVuSans-2e" transform="translate(63.623047 0)"/>
       <use xlink:href="#DejaVuSans-30" transform="translate(95.410156 0)"/>
      </g>
     </g>
    </g>
    <g id="ytick_2">
     <g id="line2d_10">
      <g>
       <use xlink:href="#m39b7c71922" x="30.103125" y="227.276779" style="stroke: #000000; stroke-width: 0.8"/>
      </g>
     </g>
     <g id="text_10">
      <!-- 1.1 -->
      <g transform="translate(7.2 231.075998) scale(0.1 -0.1)">
       <use xlink:href="#DejaVuSans-31"/>
       <use xlink:href="#DejaVuSans-2e" transform="translate(63.623047 0)"/>
       <use xlink:href="#DejaVuSans-31" transform="translate(95.410156 0)"/>
      </g>
     </g>
    </g>
    <g id="ytick_3">
     <g id="line2d_11">
      <g>
       <use xlink:href="#m39b7c71922" x="30.103125" y="182.012444" style="stroke: #000000; stroke-width: 0.8"/>
      </g>
     </g>
     <g id="text_11">
      <!-- 1.2 -->
      <g transform="translate(7.2 185.811663) scale(0.1 -0.1)">
       <use xlink:href="#DejaVuSans-31"/>
       <use xlink:href="#DejaVuSans-2e" transform="translate(63.623047 0)"/>
       <use xlink:href="#DejaVuSans-32" transform="translate(95.410156 0)"/>
      </g>
     </g>
    </g>
    <g id="ytick_4">
     <g id="line2d_12">
      <g>
       <use xlink:href="#m39b7c71922" x="30.103125" y="136.748109" style="stroke: #000000; stroke-width: 0.8"/>
      </g>
     </g>
     <g id="text_12">
      <!-- 1.3 -->
      <g transform="translate(7.2 140.547328) scale(0.1 -0.1)">
       <defs>
        <path id="DejaVuSans-33" d="M 2597 2516 
Q 3050 2419 3304 2112 
Q 3559 1806 3559 1356 
Q 3559 666 3084 287 
Q 2609 -91 1734 -91 
Q 1441 -91 1130 -33 
Q 819 25 488 141 
L 488 750 
Q 750 597 1062 519 
Q 1375 441 1716 441 
Q 2309 441 2620 675 
Q 2931 909 2931 1356 
Q 2931 1769 2642 2001 
Q 2353 2234 1838 2234 
L 1294 2234 
L 1294 2753 
L 1863 2753 
Q 2328 2753 2575 2939 
Q 2822 3125 2822 3475 
Q 2822 3834 2567 4026 
Q 2313 4219 1838 4219 
Q 1578 4219 1281 4162 
Q 984 4106 628 3988 
L 628 4550 
Q 988 4650 1302 4700 
Q 1616 4750 1894 4750 
Q 2613 4750 3031 4423 
Q 3450 4097 3450 3541 
Q 3450 3153 3228 2886 
Q 3006 2619 2597 2516 
z
" transform="scale(0.015625)"/>
       </defs>
       <use xlink:href="#DejaVuSans-31"/>
       <use xlink:href="#DejaVuSans-2e" transform="translate(63.623047 0)"/>
       <use xlink:href="#DejaVuSans-33" transform="translate(95.410156 0)"/>
      </g>
     </g>
    </g>
    <g id="ytick_5">
     <g id="line2d_13">
      <g>
       <use xlink:href="#m39b7c71922" x="30.103125" y="91.483775" style="stroke: #000000; stroke-width: 0.8"/>
      </g>
     </g>
     <g id="text_13">
      <!-- 1.4 -->
      <g transform="translate(7.2 95.282993) scale(0.1 -0.1)">
       <use xlink:href="#DejaVuSans-31"/>
       <use xlink:href="#DejaVuSans-2e" transform="translate(63.623047 0)"/>
       <use xlink:href="#DejaVuSans-34" transform="translate(95.410156 0)"/>
      </g>
     </g>
    </g>
    <g id="ytick_6">
     <g id="line2d_14">
      <g>
       <use xlink:href="#m39b7c71922" x="30.103125" y="46.21944" style="stroke: #000000; stroke-width: 0.8"/>
      </g>
     </g>
     <g id="text_14">
      <!-- 1.5 -->
      <g transform="translate(7.2 50.018658) scale(0.1 -0.1)">
       <defs>
        <path id="DejaVuSans-35" d="M 691 4666 
L 3169 4666 
L 3169 4134 
L 1269 4134 
L 1269 2991 
Q 1406 3038 1543 3061 
Q 1681 3084 1819 3084 
Q 2600 3084 3056 2656 
Q 3513 2228 3513 1497 
Q 3513 744 3044 326 
Q 2575 -91 1722 -91 
Q 1428 -91 1123 -41 
Q 819 9 494 109 
L 494 744 
Q 775 591 1075 516 
Q 1375 441 1709 441 
Q 2250 441 2565 725 
Q 2881 1009 2881 1497 
Q 2881 1984 2565 2268 
Q 2250 2553 1709 2553 
Q 1456 2553 1204 2497 
Q 953 2441 691 2322 
L 691 4666 
z
" transform="scale(0.015625)"/>
       </defs>
       <use xlink:href="#DejaVuSans-31"/>
       <use xlink:href="#DejaVuSans-2e" transform="translate(63.623047 0)"/>
       <use xlink:href="#DejaVuSans-35" transform="translate(95.410156 0)"/>
      </g>
     </g>
    </g>
    <g id="text_15">
     <!-- 1e6 -->
     <g transform="translate(30.103125 14.798437) scale(0.1 -0.1)">
      <use xlink:href="#DejaVuSans-31"/>
      <use xlink:href="#DejaVuSans-65" transform="translate(63.623047 0)"/>
      <use xlink:href="#DejaVuSans-36" transform="translate(125.146484 0)"/>
     </g>
    </g>
   </g>
   <g id="line2d_15">
    <path d="M 68.14858 272.541114 
L 70.41995 271.747719 
L 72.69132 267.866136 
L 74.962691 271.930541 
L 77.234061 268.934624 
L 79.505432 268.277735 
L 81.776802 268.705378 
L 84.048172 275.604043 
L 86.319543 267.849391 
L 88.590913 261.912763 
L 90.862284 265.47882 
L 93.133654 260.307271 
L 95.405025 252.598595 
L 97.676395 254.06695 
L 99.947765 252.297385 
L 102.219136 259.736447 
L 104.490506 264.677412 
L 106.761877 256.652684 
L 109.033247 261.50917 
L 111.304618 257.840109 
L 113.575988 252.210607 
L 118.118729 246.857847 
L 120.390099 247.070075 
L 122.66147 246.57857 
L 124.93284 245.439265 
L 127.20421 247.314497 
L 129.475581 250.339126 
L 131.746951 256.532458 
L 134.018322 247.643435 
L 136.289692 247.661631 
L 138.561063 249.96121 
L 140.832433 246.017682 
L 143.103803 246.165644 
L 145.375174 253.026568 
L 147.646544 249.685862 
L 149.917915 249.900122 
L 152.189285 247.042615 
L 154.460656 245.018185 
L 156.732026 243.971604 
L 159.003396 243.204429 
L 161.274767 240.808505 
L 163.546137 238.220309 
L 165.817508 234.127167 
L 168.088878 222.211312 
L 170.360248 244.804437 
L 172.631619 250.419839 
L 174.902989 262.778504 
L 177.17436 251.748396 
L 179.44573 259.549545 
L 181.717101 260.496126 
L 183.988471 253.775947 
L 186.259841 248.75173 
L 188.531212 253.851505 
L 190.802582 258.288346 
L 193.073953 263.81263 
L 195.345323 265.633069 
L 197.616694 260.301261 
L 199.888064 270.330679 
L 202.159434 268.760401 
L 206.702175 251.932054 
L 208.973546 253.963737 
L 211.244916 249.70713 
L 213.516286 246.692685 
L 215.787657 256.283569 
L 218.059027 248.612704 
L 220.330398 256.677071 
L 222.601768 250.635322 
L 224.873139 244.965035 
L 227.144509 241.447259 
L 229.415879 230.12339 
L 231.68725 229.24811 
L 233.95862 232.053216 
L 236.229991 238.333847 
L 238.501361 238.399293 
L 240.772732 244.412906 
L 243.044102 242.840884 
L 245.315472 244.045822 
L 247.586843 233.017387 
L 249.858213 228.703538 
L 252.129584 238.617277 
L 254.400954 237.435219 
L 256.672324 251.61823 
L 258.943695 246.429682 
L 261.215065 253.088404 
L 263.486436 246.56961 
L 265.757806 237.776592 
L 268.029177 218.283414 
L 270.300547 211.384538 
L 272.571917 211.554943 
L 274.843288 217.947617 
L 277.114658 226.230912 
L 279.386029 219.82071 
L 281.657399 225.983476 
L 283.92877 218.127275 
L 286.20014 216.487166 
L 288.47151 220.836315 
L 290.742881 226.981478 
L 293.014251 223.32084 
L 295.285622 224.320961 
L 297.556992 222.443222 
L 299.828362 220.048993 
L 302.099733 220.471866 
L 304.371103 215.268875 
L 306.642474 212.463315 
L 308.913844 204.445709 
L 311.185215 206.394549 
L 313.456585 204.286928 
L 315.727955 199.185407 
L 317.999326 198.772629 
L 320.270696 198.643099 
L 322.542067 204.847203 
L 324.813437 203.207311 
L 327.084807 203.575353 
L 329.356178 201.152812 
L 331.627548 193.365872 
L 333.898919 188.46533 
L 336.170289 184.40683 
L 338.44166 180.617036 
L 340.71303 182.240375 
L 342.9844 179.054226 
L 345.255771 180.528991 
L 347.527141 178.261234 
L 349.798512 179.024449 
L 352.069882 181.522568 
L 354.341253 180.040333 
L 356.612623 174.876587 
L 358.883993 184.123403 
L 361.155364 179.042706 
L 363.426734 180.933496 
L 365.698105 170.168856 
L 367.969475 162.706347 
L 370.240845 166.480586 
L 372.512216 168.431388 
L 374.783586 172.195069 
L 377.054957 174.519665 
L 379.326327 176.548953 
L 381.597698 172.958402 
L 383.869068 166.479535 
L 386.140438 167.927363 
L 388.411809 174.23207 
L 390.683179 173.345709 
L 392.95455 176.875927 
L 395.22592 195.594209 
L 397.497291 185.045403 
L 399.768661 190.131299 
L 402.040031 176.807053 
L 404.311402 168.644304 
L 406.582772 177.491421 
L 408.854143 164.29857 
L 411.125513 161.184295 
L 413.396883 160.238029 
L 415.668254 157.289131 
L 417.939624 155.725855 
L 420.210995 154.801169 
L 422.482365 149.462414 
L 424.753736 148.994417 
L 427.025106 150.132963 
L 429.296476 148.976702 
L 431.567847 149.195614 
L 433.839217 157.875368 
L 436.110588 160.868454 
L 438.381958 153.689634 
L 440.653329 171.475032 
L 442.924699 168.940794 
L 445.196069 158.28478 
L 447.46744 164.674997 
L 449.73881 178.28644 
L 452.010181 187.957326 
L 454.281551 174.783322 
L 456.552921 185.818411 
L 458.824292 175.984203 
L 461.095662 176.879468 
L 463.367033 165.61889 
L 465.638403 167.636903 
L 467.909774 157.751153 
L 470.181144 159.335107 
L 472.452514 158.176135 
L 474.723885 171.979121 
L 476.995255 168.282395 
L 479.266626 163.096095 
L 483.809367 175.36033 
L 486.080737 170.581525 
L 488.352107 157.781072 
L 490.623478 159.810757 
L 492.894848 162.400239 
L 495.166219 154.422517 
L 497.437589 148.101283 
L 499.708959 140.697244 
L 501.98033 141.066292 
L 504.2517 143.844076 
L 506.523071 138.214644 
L 508.794441 133.743881 
L 511.065812 134.27072 
L 513.337182 131.696097 
L 515.608552 133.566391 
L 517.879923 125.59499 
L 520.151293 122.601551 
L 522.422664 127.841455 
L 524.694034 129.619532 
L 526.965405 123.656178 
L 529.236775 127.600299 
L 531.508145 120.2879 
L 533.779516 117.821669 
L 536.050886 118.674456 
L 538.322257 122.354172 
L 540.593627 119.877211 
L 542.864997 124.76714 
L 545.136368 124.227582 
L 547.407738 133.746235 
L 549.679109 134.354729 
L 551.950479 130.862221 
L 554.22185 123.748173 
L 556.49322 136.551427 
L 558.76459 135.905968 
L 561.035961 151.012096 
L 563.307331 144.247416 
L 565.578702 134.537466 
L 567.850072 138.94348 
L 570.121443 140.973483 
L 572.392813 140.808476 
L 574.664183 130.950956 
L 576.935554 133.032018 
L 579.206924 127.31292 
L 581.478295 127.274218 
L 583.749665 127.053031 
L 586.021035 128.099187 
L 588.292406 127.357571 
L 590.563776 128.38719 
L 592.835147 131.329161 
L 595.106517 135.668084 
L 597.377888 128.138593 
L 599.649258 122.077759 
L 601.920628 120.295525 
L 604.191999 119.21307 
L 606.463369 111.20139 
L 608.73474 112.532725 
L 611.00611 110.450977 
L 613.27748 113.468701 
L 615.548851 116.947002 
L 617.820221 112.660115 
L 620.091592 117.69195 
L 622.362962 111.03438 
L 624.634333 108.814525 
L 626.905703 109.668913 
L 629.177073 106.950525 
L 631.448444 104.588242 
L 633.719814 100.261536 
L 635.991185 97.434931 
L 638.262555 97.415224 
L 640.533926 92.861041 
L 642.805296 87.395861 
L 645.076666 89.911478 
L 647.348037 86.861933 
L 649.619407 89.821016 
L 651.890778 83.314938 
L 654.162148 84.508087 
L 656.433518 85.005716 
L 658.704889 83.825959 
L 660.976259 88.411766 
L 663.24763 89.332804 
L 665.519 96.972866 
L 667.790371 88.835072 
L 670.061741 85.999329 
L 672.333111 81.34182 
L 674.604482 74.222993 
L 676.875852 74.881794 
L 679.147223 78.861482 
L 681.418593 78.042062 
L 683.689964 72.240711 
L 685.961334 74.122481 
L 688.232704 73.940782 
L 690.504075 67.476721 
L 692.775445 68.902237 
L 695.046816 65.606251 
L 697.318186 70.731902 
L 699.589556 73.214265 
L 701.860927 76.663708 
L 704.132297 76.275404 
L 706.403668 73.672366 
L 708.675038 75.063575 
L 710.946409 73.683502 
L 713.217779 76.256214 
L 715.489149 81.839774 
L 717.76052 74.487277 
L 720.03189 70.207248 
L 722.303261 66.778324 
L 726.846002 61.074531 
L 729.117372 68.795678 
L 731.388742 65.645661 
L 733.660113 60.768581 
L 735.931483 63.321703 
L 738.202854 62.71272 
L 740.474224 62.981467 
L 742.745594 62.741201 
L 745.016965 67.560031 
L 747.288335 64.76184 
L 749.559706 69.394621 
L 751.831076 71.387494 
L 754.102447 75.894768 
L 756.373817 77.944768 
L 758.645187 74.371728 
L 760.916558 71.97905 
L 763.187928 79.16888 
L 765.459299 85.649357 
L 767.730669 85.458018 
L 770.00204 78.770874 
L 772.27341 70.614099 
L 774.54478 70.160989 
L 776.816151 80.146958 
L 779.087521 95.842657 
L 781.358892 93.137008 
L 783.630262 99.276187 
L 785.901632 96.864528 
L 788.173003 108.174941 
L 790.444373 102.3016 
L 792.715744 99.719887 
L 794.987114 94.249095 
L 797.258485 100.253613 
L 799.529855 104.659864 
L 801.801225 104.144466 
L 804.072596 102.585038 
L 806.343966 92.986292 
L 808.615337 90.392692 
L 810.886707 89.086546 
L 813.158078 85.930898 
L 815.429448 82.279228 
L 817.700818 75.552336 
L 819.972189 76.203626 
L 824.51493 73.905798 
L 826.7863 78.831583 
L 826.7863 78.831583 
" clip-path="url(#p5003b73425)" style="fill: none; stroke: #1f77b4; stroke-width: 1.5; stroke-linecap: square"/>
   </g>
   <g id="line2d_16">
    <path d="M 68.14858 272.541114 
L 70.41995 270.764098 
L 72.69132 264.300858 
L 74.962691 267.986778 
L 77.234061 264.722552 
L 79.505432 263.611069 
L 81.776802 257.924046 
L 84.048172 268.803402 
L 86.319543 265.10592 
L 88.590913 256.773932 
L 90.862284 261.607675 
L 93.133654 260.42422 
L 95.405025 251.198567 
L 97.676395 253.343789 
L 99.947765 252.115781 
L 102.219136 261.818151 
L 104.490506 263.501469 
L 106.761877 250.904445 
L 109.033247 258.192736 
L 111.304618 250.816693 
L 113.575988 248.756562 
L 115.847358 247.826529 
L 118.118729 241.710403 
L 120.390099 240.037407 
L 122.66147 232.161661 
L 124.93284 230.235311 
L 127.20421 232.332868 
L 129.475581 238.652521 
L 131.746951 243.405759 
L 134.018322 237.227597 
L 136.289692 233.291334 
L 138.561063 234.569381 
L 140.832433 229.984076 
L 143.103803 226.221272 
L 145.375174 232.793158 
L 147.646544 230.359928 
L 149.917915 231.408628 
L 152.189285 226.223663 
L 154.460656 222.170336 
L 156.732026 218.586282 
L 159.003396 220.077355 
L 161.274767 218.110725 
L 163.546137 220.229807 
L 165.817508 211.816465 
L 168.088878 205.500615 
L 170.360248 228.864466 
L 172.631619 235.189239 
L 174.902989 249.633021 
L 177.17436 245.452086 
L 179.44573 254.762852 
L 181.717101 258.094681 
L 183.988471 253.985956 
L 186.259841 251.156036 
L 188.531212 255.976043 
L 190.802582 262.103262 
L 193.073953 267.070492 
L 195.345323 270.409488 
L 197.616694 260.401948 
L 199.888064 271.228265 
L 202.159434 269.060273 
L 204.430805 261.727909 
L 206.702175 251.482546 
L 208.973546 254.783669 
L 211.244916 250.123236 
L 213.516286 241.610258 
L 215.787657 252.902452 
L 218.059027 246.118141 
L 220.330398 251.01692 
L 222.601768 237.896231 
L 224.873139 233.555835 
L 227.144509 225.961174 
L 229.415879 217.783715 
L 231.68725 214.343384 
L 233.95862 221.737735 
L 236.229991 223.920612 
L 238.501361 225.417198 
L 240.772732 230.307851 
L 243.044102 225.049675 
L 245.315472 229.529093 
L 247.586843 220.057428 
L 249.858213 213.958374 
L 252.129584 225.647327 
L 254.400954 227.21902 
L 256.672324 240.99091 
L 258.943695 233.89456 
L 261.215065 247.483096 
L 263.486436 244.916553 
L 265.757806 234.493299 
L 268.029177 212.009341 
L 270.300547 194.333725 
L 272.571917 188.646167 
L 274.843288 194.276299 
L 277.114658 212.035561 
L 279.386029 201.146318 
L 281.657399 207.522619 
L 283.92877 198.925694 
L 286.20014 195.773556 
L 288.47151 196.939928 
L 290.742881 200.245396 
L 293.014251 194.588838 
L 295.285622 191.180821 
L 299.828362 179.742901 
L 302.099733 176.882532 
L 304.371103 171.007039 
L 306.642474 167.925429 
L 308.913844 164.310302 
L 311.185215 164.174321 
L 313.456585 158.573054 
L 315.727955 154.7599 
L 317.999326 153.436507 
L 320.270696 151.455531 
L 322.542067 162.538542 
L 324.813437 156.423571 
L 327.084807 157.721179 
L 329.356178 154.691857 
L 331.627548 144.938932 
L 333.898919 141.796383 
L 336.170289 135.518104 
L 338.44166 131.702766 
L 340.71303 137.233208 
L 342.9844 135.251775 
L 345.255771 140.519194 
L 347.527141 138.799646 
L 349.798512 138.683782 
L 352.069882 135.547895 
L 354.341253 130.772925 
L 356.612623 130.436847 
L 358.883993 141.945234 
L 361.155364 136.329678 
L 363.426734 141.248739 
L 365.698105 133.209723 
L 367.969475 117.27957 
L 370.240845 119.463041 
L 372.512216 117.481969 
L 374.783586 120.183633 
L 377.054957 116.328987 
L 379.326327 120.410549 
L 381.597698 111.374441 
L 383.869068 96.218618 
L 386.140438 104.40424 
L 388.411809 107.773701 
L 392.95455 128.949591 
L 395.22592 153.498345 
L 397.497291 129.350934 
L 399.768661 143.732839 
L 402.040031 124.855002 
L 404.311402 114.535187 
L 406.582772 125.050779 
L 408.854143 112.587522 
L 411.125513 107.686515 
L 413.396883 108.263437 
L 415.668254 110.410056 
L 417.939624 105.005885 
L 420.210995 100.400988 
L 422.482365 98.170733 
L 424.753736 97.21594 
L 427.025106 101.152043 
L 429.296476 100.979643 
L 431.567847 98.392453 
L 433.839217 111.295287 
L 436.110588 111.919858 
L 438.381958 110.415167 
L 440.653329 136.451712 
L 442.924699 131.442297 
L 445.196069 119.238535 
L 447.46744 130.011356 
L 449.73881 151.199301 
L 452.010181 165.47884 
L 454.281551 153.772976 
L 456.552921 166.256525 
L 458.824292 152.261942 
L 461.095662 153.297295 
L 463.367033 134.939534 
L 465.638403 136.946407 
L 467.909774 127.15608 
L 470.181144 133.052028 
L 472.452514 130.188875 
L 474.723885 152.68197 
L 476.995255 151.74475 
L 479.266626 147.835247 
L 481.537996 154.441906 
L 483.809367 164.057191 
L 486.080737 158.581103 
L 488.352107 146.525468 
L 490.623478 148.452987 
L 492.894848 147.412731 
L 495.166219 140.840436 
L 497.437589 131.308726 
L 499.708959 126.792595 
L 501.98033 121.501722 
L 504.2517 123.951702 
L 506.523071 115.762052 
L 508.794441 112.573553 
L 511.065812 113.493201 
L 513.337182 112.273559 
L 515.608552 116.404348 
L 517.879923 107.940887 
L 520.151293 105.969868 
L 522.422664 111.519559 
L 524.694034 122.069414 
L 526.965405 115.534285 
L 529.236775 118.010991 
L 531.508145 109.567947 
L 533.779516 104.344702 
L 536.050886 106.792541 
L 538.322257 105.26593 
L 540.593627 106.85385 
L 542.864997 112.216081 
L 545.136368 112.665944 
L 547.407738 124.903882 
L 549.679109 127.928775 
L 551.950479 136.262915 
L 554.22185 126.705238 
L 556.49322 145.842037 
L 558.76459 146.812158 
L 561.035961 166.591016 
L 563.307331 161.86667 
L 565.578702 150.072374 
L 567.850072 154.109086 
L 570.121443 155.10156 
L 572.392813 154.140834 
L 574.664183 141.592065 
L 576.935554 144.610327 
L 579.206924 138.67086 
L 581.478295 139.346358 
L 583.749665 136.139134 
L 586.021035 140.337186 
L 588.292406 139.221722 
L 590.563776 141.206061 
L 592.835147 143.763598 
L 595.106517 150.727704 
L 597.377888 144.359896 
L 599.649258 140.948273 
L 601.920628 140.831561 
L 604.191999 140.040835 
L 606.463369 129.91168 
L 608.73474 129.491932 
L 611.00611 124.481923 
L 613.27748 129.664423 
L 615.548851 129.361026 
L 617.820221 123.616643 
L 620.091592 128.272463 
L 622.362962 123.172846 
L 624.634333 119.298094 
L 626.905703 117.572898 
L 629.177073 115.251251 
L 631.448444 112.474043 
L 633.719814 111.483041 
L 635.991185 111.082718 
L 638.262555 113.312616 
L 640.533926 110.984847 
L 642.805296 106.376533 
L 645.076666 108.115428 
L 647.348037 110.286856 
L 649.619407 113.649791 
L 651.890778 106.038358 
L 654.162148 109.245846 
L 656.433518 107.915475 
L 658.704889 110.978124 
L 660.976259 114.667861 
L 663.24763 117.807623 
L 665.519 126.284203 
L 667.790371 114.009222 
L 670.061741 109.176501 
L 674.604482 96.154559 
L 679.147223 99.909347 
L 681.418593 94.67148 
L 683.689964 91.247831 
L 685.961334 100.08831 
L 690.504075 98.862363 
L 692.775445 103.344038 
L 695.046816 75.617601 
L 697.318186 81.228895 
L 699.589556 84.20817 
L 701.860927 72.716833 
L 704.132297 71.59119 
L 706.403668 75.172784 
L 708.675038 73.872986 
L 710.946409 81.486114 
L 713.217779 87.807589 
L 715.489149 89.894485 
L 717.76052 88.266651 
L 720.03189 83.997919 
L 722.303261 75.71727 
L 724.574631 64.963855 
L 726.846002 61.17844 
L 729.117372 68.556187 
L 731.388742 61.69033 
L 733.660113 58.864563 
L 735.931483 60.600201 
L 738.202854 58.17131 
L 740.474224 54.085972 
L 742.745594 53.182014 
L 745.016965 53.077406 
L 747.288335 57.759488 
L 749.559706 59.042457 
L 751.831076 63.805423 
L 754.102447 64.349449 
L 756.373817 66.517648 
L 758.645187 59.06278 
L 760.916558 59.213874 
L 763.187928 63.067131 
L 765.459299 72.801135 
L 767.730669 71.831447 
L 770.00204 60.838047 
L 772.27341 52.951025 
L 774.54478 53.688497 
L 776.816151 67.320897 
L 779.087521 86.165982 
L 781.358892 89.033309 
L 783.630262 90.986817 
L 785.901632 86.409625 
L 788.173003 100.081045 
L 790.444373 97.019778 
L 792.715744 97.720307 
L 794.987114 93.448231 
L 797.258485 99.705637 
L 799.529855 107.983328 
L 801.801225 107.947433 
L 806.343966 93.930268 
L 808.615337 87.921782 
L 810.886707 84.814321 
L 813.158078 85.379694 
L 815.429448 86.923598 
L 817.700818 82.47073 
L 819.972189 91.425273 
L 822.243559 86.261709 
L 824.51493 82.900848 
L 826.7863 90.22594 
L 826.7863 90.22594 
" clip-path="url(#p5003b73425)" style="fill: none; stroke: #ff7f0e; stroke-width: 1.5; stroke-linecap: square"/>
   </g>
   <g id="line2d_17">
    <path d="M 68.14858 272.541114 
L 70.41995 272.191522 
L 72.69132 270.180206 
L 74.962691 272.072915 
L 79.505432 269.558595 
L 81.776802 266.980658 
L 84.048172 273.793197 
L 86.319543 271.922457 
L 88.590913 264.339916 
L 90.862284 269.629061 
L 93.133654 268.538373 
L 95.405025 260.627262 
L 97.676395 263.509734 
L 99.947765 262.719689 
L 102.219136 270.152201 
L 104.490506 273.37015 
L 106.761877 265.453548 
L 109.033247 272.013525 
L 111.304618 265.203248 
L 113.575988 264.049098 
L 115.847358 263.277793 
L 118.118729 259.715087 
L 120.390099 255.296658 
L 122.66147 248.255873 
L 124.93284 245.632409 
L 127.20421 250.991467 
L 129.475581 253.835151 
L 131.746951 255.832931 
L 134.018322 249.244137 
L 136.289692 247.832078 
L 138.561063 251.602541 
L 140.832433 248.717976 
L 143.103803 242.484622 
L 145.375174 245.878717 
L 147.646544 243.605389 
L 149.917915 244.124489 
L 152.189285 236.416545 
L 156.732026 229.419807 
L 159.003396 230.996158 
L 161.274767 225.823382 
L 163.546137 229.800201 
L 165.817508 222.812911 
L 168.088878 216.682978 
L 170.360248 235.651625 
L 172.631619 243.07313 
L 174.902989 259.272169 
L 177.17436 251.69541 
L 179.44573 261.542729 
L 181.717101 265.369338 
L 183.988471 263.127303 
L 186.259841 259.155819 
L 188.531212 262.696162 
L 190.802582 268.626901 
L 193.073953 275.23767 
L 195.345323 280.94523 
L 197.616694 270.536595 
L 199.888064 282.398437 
L 202.159434 279.554076 
L 204.430805 273.104733 
L 206.702175 262.408102 
L 208.973546 266.851538 
L 211.244916 263.392002 
L 213.516286 255.169722 
L 215.787657 266.272581 
L 218.059027 260.317435 
L 220.330398 265.965057 
L 222.601768 254.180965 
L 224.873139 249.768639 
L 227.144509 241.438731 
L 229.415879 230.540313 
L 231.68725 232.131939 
L 233.95862 238.208886 
L 236.229991 241.920001 
L 238.501361 244.350262 
L 240.772732 248.723748 
L 243.044102 245.459925 
L 245.315472 245.317393 
L 247.586843 239.644937 
L 249.858213 234.713196 
L 252.129584 245.351684 
L 254.400954 246.546074 
L 256.672324 263.865087 
L 258.943695 256.806163 
L 261.215065 269.255936 
L 263.486436 269.202171 
L 265.757806 258.879924 
L 268.029177 243.356697 
L 270.300547 225.213314 
L 272.571917 222.523075 
L 274.843288 206.167792 
L 277.114658 225.044215 
L 279.386029 217.360819 
L 281.657399 222.875957 
L 283.92877 211.211704 
L 286.20014 206.019323 
L 288.47151 207.801412 
L 290.742881 212.495726 
L 293.014251 211.377294 
L 295.285622 211.929696 
L 297.556992 207.715735 
L 299.828362 199.830581 
L 302.099733 197.037668 
L 304.371103 193.552592 
L 306.642474 192.98253 
L 308.913844 188.635263 
L 311.185215 186.528937 
L 313.456585 183.551149 
L 315.727955 179.49817 
L 317.999326 177.47778 
L 320.270696 177.055732 
L 322.542067 182.776058 
L 324.813437 179.341983 
L 327.084807 179.999778 
L 329.356178 178.140183 
L 331.627548 167.192916 
L 333.898919 163.191289 
L 336.170289 160.605645 
L 338.44166 158.677918 
L 340.71303 163.817043 
L 342.9844 163.434636 
L 347.527141 162.319885 
L 349.798512 156.018018 
L 352.069882 151.069354 
L 354.341253 144.097821 
L 356.612623 143.645668 
L 358.883993 155.093798 
L 361.155364 150.071485 
L 363.426734 153.88439 
L 365.698105 147.47556 
L 367.969475 131.071868 
L 370.240845 139.645987 
L 372.512216 135.971823 
L 374.783586 138.020906 
L 377.054957 132.669939 
L 379.326327 142.189628 
L 381.597698 131.178796 
L 383.869068 122.171125 
L 386.140438 127.037809 
L 388.411809 131.239587 
L 392.95455 145.546516 
L 395.22592 168.764682 
L 397.497291 146.955521 
L 399.768661 162.992201 
L 402.040031 144.413336 
L 404.311402 132.417111 
L 406.582772 142.898604 
L 408.854143 134.792081 
L 411.125513 129.17078 
L 413.396883 128.073861 
L 415.668254 127.302804 
L 420.210995 116.006036 
L 422.482365 113.583768 
L 424.753736 108.967969 
L 427.025106 111.621786 
L 429.296476 111.696673 
L 431.567847 103.263546 
L 433.839217 110.327094 
L 436.110588 112.948574 
L 438.381958 110.20673 
L 440.653329 140.195228 
L 442.924699 136.219547 
L 445.196069 124.779925 
L 447.46744 134.99626 
L 449.73881 151.603662 
L 452.010181 166.950237 
L 454.281551 155.29647 
L 456.552921 166.868516 
L 458.824292 148.357715 
L 461.095662 151.297473 
L 463.367033 137.178892 
L 465.638403 138.66048 
L 467.909774 131.583938 
L 470.181144 134.877164 
L 472.452514 127.336101 
L 474.723885 151.092818 
L 476.995255 154.02534 
L 479.266626 149.982308 
L 481.537996 154.166052 
L 483.809367 163.2149 
L 486.080737 163.271573 
L 488.352107 150.593851 
L 492.894848 150.436498 
L 495.166219 144.625818 
L 497.437589 132.027467 
L 499.708959 124.567311 
L 501.98033 122.932631 
L 504.2517 123.076319 
L 506.523071 116.088467 
L 508.794441 113.402605 
L 511.065812 117.710378 
L 513.337182 116.628701 
L 515.608552 118.097411 
L 517.879923 114.558021 
L 520.151293 110.091873 
L 522.422664 117.825669 
L 524.694034 131.37829 
L 526.965405 121.794649 
L 529.236775 126.461715 
L 531.508145 115.390381 
L 533.779516 107.533903 
L 536.050886 107.684018 
L 538.322257 103.455628 
L 540.593627 104.166756 
L 542.864997 111.467618 
L 545.136368 116.533615 
L 547.407738 130.024362 
L 549.679109 133.469965 
L 551.950479 139.62389 
L 554.22185 132.940528 
L 556.49322 151.780523 
L 558.76459 151.323618 
L 561.035961 169.467771 
L 563.307331 164.40039 
L 565.578702 150.073062 
L 567.850072 154.813481 
L 570.121443 157.833697 
L 572.392813 153.862793 
L 574.664183 143.685561 
L 576.935554 148.179851 
L 579.206924 139.224997 
L 581.478295 137.760991 
L 583.749665 135.219871 
L 586.021035 139.74161 
L 588.292406 136.815786 
L 590.563776 139.134268 
L 592.835147 140.732559 
L 595.106517 148.488389 
L 597.377888 141.421682 
L 599.649258 144.823581 
L 601.920628 143.074319 
L 604.191999 142.508106 
L 606.463369 134.432466 
L 608.73474 135.466707 
L 611.00611 130.448671 
L 613.27748 134.667798 
L 615.548851 135.120383 
L 617.820221 131.184736 
L 620.091592 138.469505 
L 622.362962 134.978099 
L 624.634333 131.77228 
L 626.905703 132.782978 
L 629.177073 131.123346 
L 631.448444 128.92902 
L 633.719814 128.771138 
L 635.991185 128.891568 
L 638.262555 131.311821 
L 640.533926 132.207793 
L 642.805296 126.088016 
L 645.076666 124.612227 
L 647.348037 128.993848 
L 649.619407 132.380212 
L 651.890778 125.614969 
L 654.162148 125.338157 
L 656.433518 125.687445 
L 658.704889 127.455236 
L 660.976259 131.201421 
L 663.24763 138.165156 
L 665.519 148.382559 
L 667.790371 138.095894 
L 670.061741 127.224554 
L 672.333111 122.195045 
L 674.604482 117.708487 
L 676.875852 116.35652 
L 679.147223 121.256555 
L 681.418593 116.381273 
L 683.689964 115.12668 
L 685.961334 128.793763 
L 688.232704 128.297689 
L 690.504075 129.108775 
L 692.775445 133.449555 
L 695.046816 114.636667 
L 697.318186 119.207885 
L 699.589556 121.091908 
L 701.860927 114.090434 
L 704.132297 114.244407 
L 706.403668 117.526266 
L 708.675038 116.867232 
L 710.946409 125.666158 
L 713.217779 132.850443 
L 715.489149 136.896693 
L 717.76052 137.952847 
L 720.03189 135.23483 
L 722.303261 123.100194 
L 724.574631 110.25481 
L 726.846002 107.043181 
L 729.117372 113.258079 
L 731.388742 105.197659 
L 733.660113 104.082119 
L 735.931483 100.936341 
L 738.202854 99.433085 
L 740.474224 98.783982 
L 742.745594 97.439745 
L 745.016965 93.68177 
L 747.288335 97.611865 
L 751.831076 103.820428 
L 754.102447 102.160223 
L 756.373817 103.222624 
L 758.645187 96.85352 
L 760.916558 98.890727 
L 763.187928 104.603486 
L 765.459299 115.01968 
L 767.730669 115.795133 
L 770.00204 104.159051 
L 772.27341 93.976312 
L 774.54478 93.623148 
L 776.816151 101.544489 
L 779.087521 118.409128 
L 781.358892 125.698679 
L 783.630262 126.695101 
L 785.901632 120.722928 
L 788.173003 132.476168 
L 790.444373 130.595229 
L 792.715744 130.942253 
L 794.987114 123.253614 
L 797.258485 126.461742 
L 799.529855 132.098229 
L 801.801225 133.14131 
L 804.072596 126.023908 
L 806.343966 117.829866 
L 808.615337 108.556401 
L 810.886707 107.944324 
L 813.158078 106.830524 
L 815.429448 113.955535 
L 817.700818 109.220779 
L 819.972189 115.798378 
L 822.243559 114.446173 
L 824.51493 110.762139 
L 826.7863 114.743008 
L 826.7863 114.743008 
" clip-path="url(#p5003b73425)" style="fill: none; stroke: #2ca02c; stroke-width: 1.5; stroke-linecap: square"/>
   </g>
   <g id="line2d_18">
    <path d="M 68.14858 272.541114 
L 70.41995 270.296768 
L 72.69132 263.286415 
L 74.962691 267.089817 
L 77.234061 264.099512 
L 79.505432 261.583373 
L 81.776802 257.782542 
L 84.048172 269.728099 
L 86.319543 267.767713 
L 88.590913 262.36321 
L 90.862284 267.476379 
L 93.133654 265.560963 
L 95.405025 254.070602 
L 97.676395 256.903713 
L 99.947765 255.29726 
L 102.219136 264.860191 
L 104.490506 267.230386 
L 106.761877 254.727388 
L 109.033247 261.587395 
L 111.304618 254.518743 
L 113.575988 251.806463 
L 115.847358 249.986934 
L 118.118729 242.69432 
L 120.390099 239.805336 
L 122.66147 232.498168 
L 124.93284 230.753424 
L 127.20421 234.879391 
L 129.475581 241.19446 
L 131.746951 246.371003 
L 134.018322 238.50102 
L 136.289692 234.369223 
L 138.561063 236.266548 
L 140.832433 230.559471 
L 143.103803 226.969491 
L 145.375174 230.85334 
L 147.646544 229.221239 
L 149.917915 230.330898 
L 152.189285 224.301752 
L 154.460656 219.600936 
L 156.732026 216.92944 
L 159.003396 219.701468 
L 161.274767 217.219292 
L 163.546137 219.984192 
L 165.817508 211.471423 
L 168.088878 205.276631 
L 170.360248 229.616036 
L 172.631619 236.575702 
L 174.902989 254.401593 
L 177.17436 249.180638 
L 179.44573 257.9111 
L 181.717101 261.168603 
L 183.988471 255.886822 
L 186.259841 253.748408 
L 190.802582 264.028673 
L 193.073953 268.379827 
L 195.345323 270.962843 
L 197.616694 260.633301 
L 199.888064 270.819037 
L 202.159434 268.340936 
L 204.430805 261.523211 
L 206.702175 251.446949 
L 208.973546 254.358488 
L 211.244916 250.346262 
L 213.516286 241.077413 
L 215.787657 253.291405 
L 218.059027 246.531108 
L 220.330398 251.341659 
L 222.601768 239.553935 
L 224.873139 234.961049 
L 229.415879 217.575571 
L 231.68725 213.426766 
L 233.95862 221.32118 
L 236.229991 224.991804 
L 238.501361 225.696641 
L 240.772732 229.772264 
L 243.044102 224.398447 
L 245.315472 227.05941 
L 247.586843 224.377279 
L 249.858213 219.582366 
L 252.129584 230.270302 
L 254.400954 231.26901 
L 256.672324 244.849907 
L 258.943695 237.195737 
L 261.215065 251.257472 
L 263.486436 250.060725 
L 265.757806 239.17958 
L 270.300547 200.133908 
L 272.571917 193.560876 
L 274.843288 195.760363 
L 277.114658 214.831575 
L 279.386029 201.749554 
L 281.657399 207.419414 
L 283.92877 199.188065 
L 286.20014 195.477502 
L 288.47151 196.123588 
L 290.742881 199.174486 
L 293.014251 193.142439 
L 295.285622 190.160674 
L 297.556992 184.686102 
L 299.828362 179.911494 
L 302.099733 176.471862 
L 304.371103 169.765634 
L 306.642474 166.036931 
L 308.913844 163.154632 
L 311.185215 162.920201 
L 313.456585 158.144756 
L 315.727955 154.182908 
L 320.270696 149.269496 
L 322.542067 160.911099 
L 324.813437 154.616431 
L 327.084807 155.769614 
L 329.356178 152.908087 
L 331.627548 142.581527 
L 333.898919 139.998218 
L 336.170289 134.123203 
L 338.44166 130.29154 
L 340.71303 136.331405 
L 342.9844 134.92009 
L 345.255771 139.935451 
L 347.527141 137.163805 
L 349.798512 136.907487 
L 352.069882 134.006356 
L 354.341253 127.323752 
L 356.612623 128.598093 
L 358.883993 137.864533 
L 361.155364 133.152102 
L 363.426734 140.06193 
L 365.698105 131.242525 
L 367.969475 113.737528 
L 370.240845 116.127108 
L 372.512216 112.636548 
L 374.783586 116.108532 
L 377.054957 110.842638 
L 379.326327 116.356376 
L 381.597698 104.678337 
L 383.869068 93.590468 
L 386.140438 99.465452 
L 388.411809 101.011329 
L 390.683179 110.477149 
L 392.95455 121.730753 
L 395.22592 146.322569 
L 397.497291 123.54396 
L 399.768661 139.172963 
L 402.040031 119.207366 
L 404.311402 108.658596 
L 406.582772 119.73996 
L 408.854143 110.19256 
L 411.125513 106.374566 
L 413.396883 103.504429 
L 415.668254 106.029785 
L 417.939624 100.383133 
L 420.210995 91.936154 
L 422.482365 89.500686 
L 424.753736 88.063964 
L 427.025106 92.348178 
L 429.296476 92.030424 
L 431.567847 86.940031 
L 433.839217 102.412402 
L 436.110588 103.987855 
L 438.381958 103.184204 
L 440.653329 132.318729 
L 442.924699 126.471657 
L 445.196069 112.552664 
L 447.46744 125.144515 
L 449.73881 145.864838 
L 452.010181 163.140824 
L 454.281551 151.255679 
L 456.552921 166.592039 
L 458.824292 148.085994 
L 461.095662 151.631814 
L 463.367033 132.521438 
L 465.638403 134.665292 
L 467.909774 125.087716 
L 470.181144 129.23833 
L 472.452514 125.374954 
L 474.723885 149.232788 
L 476.995255 148.361647 
L 479.266626 141.951724 
L 481.537996 149.188872 
L 483.809367 158.614938 
L 486.080737 154.32161 
L 488.352107 139.025075 
L 490.623478 141.855997 
L 492.894848 141.435636 
L 495.166219 133.957305 
L 497.437589 122.42949 
L 499.708959 116.94295 
L 501.98033 112.390846 
L 504.2517 114.802054 
L 506.523071 106.125147 
L 508.794441 104.446839 
L 511.065812 106.512036 
L 513.337182 104.967882 
L 515.608552 109.245868 
L 517.879923 100.816758 
L 520.151293 99.004667 
L 522.422664 105.906933 
L 524.694034 116.821596 
L 526.965405 105.994376 
L 529.236775 109.64299 
L 531.508145 98.716051 
L 533.779516 93.583163 
L 536.050886 94.765962 
L 538.322257 94.698939 
L 540.593627 96.155721 
L 542.864997 103.207258 
L 545.136368 104.511714 
L 547.407738 117.993941 
L 549.679109 119.07131 
L 551.950479 127.250328 
L 554.22185 117.940832 
L 556.49322 138.165426 
L 558.76459 139.204174 
L 561.035961 160.050336 
L 563.307331 154.794323 
L 565.578702 141.422048 
L 567.850072 145.219942 
L 570.121443 147.064356 
L 572.392813 145.27372 
L 574.664183 131.554783 
L 576.935554 135.451707 
L 579.206924 128.76619 
L 581.478295 127.838057 
L 583.749665 124.520813 
L 586.021035 129.39223 
L 588.292406 127.134237 
L 590.563776 129.31715 
L 592.835147 130.741491 
L 595.106517 138.524736 
L 597.377888 131.64378 
L 599.649258 132.688313 
L 601.920628 134.017847 
L 604.191999 133.125137 
L 606.463369 122.871172 
L 608.73474 121.801329 
L 611.00611 115.627794 
L 613.27748 121.09706 
L 615.548851 121.477639 
L 617.820221 115.022485 
L 620.091592 121.050474 
L 622.362962 115.493015 
L 624.634333 111.029475 
L 626.905703 109.117033 
L 629.177073 105.303135 
L 631.448444 102.536209 
L 633.719814 99.523159 
L 635.991185 98.069853 
L 638.262555 100.912896 
L 640.533926 102.056099 
L 642.805296 97.24591 
L 645.076666 98.525046 
L 647.348037 101.596406 
L 649.619407 106.590553 
L 651.890778 98.268568 
L 654.162148 100.918316 
L 656.433518 99.394113 
L 658.704889 102.333031 
L 660.976259 104.613532 
L 663.24763 108.625747 
L 665.519 116.064011 
L 667.790371 104.277881 
L 670.061741 96.189247 
L 672.333111 89.424374 
L 674.604482 83.460813 
L 679.147223 90.406409 
L 681.418593 83.005815 
L 683.689964 81.302409 
L 685.961334 88.392049 
L 690.504075 86.9748 
L 692.775445 89.564843 
L 695.046816 62.169026 
L 697.318186 68.294859 
L 699.589556 70.275433 
L 701.860927 59.723037 
L 704.132297 58.530068 
L 706.403668 64.779335 
L 708.675038 63.27547 
L 710.946409 71.375068 
L 713.217779 78.210482 
L 715.489149 81.160439 
L 717.76052 81.104595 
L 720.03189 76.889523 
L 724.574631 58.225196 
L 726.846002 53.82463 
L 729.117372 60.44143 
L 731.388742 53.054944 
L 733.660113 50.280725 
L 735.931483 52.237595 
L 738.202854 50.665284 
L 740.474224 46.896526 
L 742.745594 44.921451 
L 745.016965 44.758114 
L 747.288335 50.592408 
L 749.559706 49.430944 
L 751.831076 53.827084 
L 754.102447 53.42064 
L 756.373817 53.88511 
L 758.645187 46.47792 
L 760.916558 46.977966 
L 763.187928 51.827098 
L 765.459299 63.473854 
L 767.730669 61.041014 
L 770.00204 50.6962 
L 772.27341 42.701138 
L 774.54478 43.993602 
L 776.816151 58.414845 
L 779.087521 80.596671 
L 781.358892 86.037753 
L 783.630262 87.213092 
L 785.901632 83.992252 
L 788.173003 98.171125 
L 790.444373 96.183808 
L 792.715744 97.717858 
L 794.987114 92.609424 
L 797.258485 98.524591 
L 799.529855 106.75502 
L 801.801225 107.40191 
L 804.072596 97.728987 
L 806.343966 88.612008 
L 808.615337 81.717274 
L 810.886707 77.436363 
L 813.158078 75.666132 
L 815.429448 78.759654 
L 817.700818 74.263482 
L 819.972189 81.109841 
L 822.243559 76.23585 
L 824.51493 74.568573 
L 826.7863 81.012809 
L 826.7863 81.012809 
" clip-path="url(#p5003b73425)" style="fill: none; stroke: #d62728; stroke-width: 1.5; stroke-linecap: square"/>
   </g>
   <g id="line2d_19">
    <path d="M 68.14858 272.541114 
L 70.41995 270.749014 
L 72.69132 262.718919 
L 74.962691 269.095586 
L 77.234061 266.657408 
L 81.776802 260.485374 
L 84.048172 268.092625 
L 86.319543 264.800596 
L 88.590913 256.063268 
L 90.862284 261.780279 
L 93.133654 259.97907 
L 95.405025 253.500203 
L 97.676395 255.703185 
L 99.947765 253.556634 
L 102.219136 260.181264 
L 104.490506 264.024298 
L 106.761877 258.460269 
L 109.033247 263.776721 
L 111.304618 259.810127 
L 113.575988 258.869046 
L 115.847358 259.004093 
L 118.118729 256.253188 
L 120.390099 253.221377 
L 122.66147 248.792538 
L 124.93284 246.03574 
L 127.20421 252.02293 
L 129.475581 252.661113 
L 131.746951 254.186519 
L 134.018322 247.160572 
L 136.289692 247.196003 
L 138.561063 251.06794 
L 140.832433 248.926136 
L 143.103803 245.560244 
L 145.375174 249.24854 
L 147.646544 247.59177 
L 149.917915 246.948008 
L 152.189285 240.434834 
L 154.460656 236.68486 
L 156.732026 232.268967 
L 159.003396 232.835303 
L 161.274767 226.227924 
L 163.546137 229.081512 
L 165.817508 224.651171 
L 168.088878 215.01661 
L 170.360248 231.083719 
L 172.631619 238.416211 
L 174.902989 250.785955 
L 177.17436 245.35105 
L 179.44573 254.518777 
L 181.717101 257.1755 
L 183.988471 252.108247 
L 186.259841 248.90367 
L 188.531212 253.252964 
L 190.802582 259.721015 
L 193.073953 267.593647 
L 195.345323 277.00509 
L 197.616694 271.734817 
L 199.888064 280.386455 
L 202.159434 277.257243 
L 204.430805 271.184402 
L 206.702175 261.001632 
L 208.973546 264.962243 
L 211.244916 259.404908 
L 213.516286 252.20599 
L 215.787657 261.869592 
L 218.059027 256.196402 
L 220.330398 261.21797 
L 222.601768 252.62602 
L 224.873139 246.182532 
L 227.144509 238.95957 
L 229.415879 228.601883 
L 231.68725 233.325404 
L 233.95862 240.499257 
L 236.229991 245.744717 
L 238.501361 248.461973 
L 240.772732 254.225807 
L 243.044102 251.952929 
L 245.315472 249.91709 
L 247.586843 242.722118 
L 249.858213 238.602614 
L 252.129584 250.508795 
L 254.400954 253.541807 
L 256.672324 272.343689 
L 258.943695 264.693617 
L 261.215065 272.322335 
L 263.486436 271.566474 
L 265.757806 260.235272 
L 268.029177 244.705217 
L 270.300547 234.318613 
L 272.571917 231.896033 
L 274.843288 208.098584 
L 277.114658 221.510997 
L 279.386029 216.278826 
L 281.657399 222.591951 
L 283.92877 210.481886 
L 286.20014 205.08396 
L 288.47151 209.040958 
L 290.742881 215.735303 
L 293.014251 215.792168 
L 295.285622 217.13674 
L 297.556992 214.935569 
L 299.828362 205.010319 
L 302.099733 208.485658 
L 304.371103 204.894374 
L 306.642474 205.803698 
L 308.913844 198.230282 
L 311.185215 196.60843 
L 313.456585 193.501892 
L 315.727955 187.352333 
L 317.999326 186.391164 
L 320.270696 189.155787 
L 322.542067 193.000956 
L 324.813437 191.73178 
L 327.084807 193.87284 
L 329.356178 193.597116 
L 331.627548 184.86468 
L 333.898919 181.887939 
L 336.170289 177.418559 
L 338.44166 175.751548 
L 340.71303 179.718716 
L 342.9844 178.584737 
L 345.255771 175.631806 
L 347.527141 174.744291 
L 349.798512 169.890186 
L 352.069882 166.231349 
L 354.341253 161.392023 
L 356.612623 157.920919 
L 358.883993 166.943482 
L 361.155364 162.454921 
L 363.426734 160.936451 
L 365.698105 153.821901 
L 367.969475 143.094898 
L 370.240845 153.316485 
L 372.512216 155.227833 
L 374.783586 157.686341 
L 377.054957 155.482586 
L 379.326327 164.620691 
L 381.597698 154.2182 
L 383.869068 148.791171 
L 386.140438 151.907026 
L 388.411809 157.407243 
L 390.683179 159.718676 
L 392.95455 166.165679 
L 395.22592 185.558111 
L 397.497291 165.659637 
L 399.768661 179.827034 
L 402.040031 164.821232 
L 404.311402 152.346802 
L 406.582772 162.571959 
L 408.854143 152.947136 
L 411.125513 149.494321 
L 413.396883 144.528729 
L 415.668254 142.346824 
L 417.939624 136.701032 
L 420.210995 130.495421 
L 422.482365 123.790054 
L 424.753736 121.212836 
L 427.025106 120.584634 
L 429.296476 120.393749 
L 431.567847 113.960219 
L 433.839217 117.568044 
L 436.110588 119.838368 
L 438.381958 108.941263 
L 440.653329 138.809149 
L 442.924699 134.444537 
L 445.196069 125.30497 
L 447.46744 134.193837 
L 452.010181 162.989485 
L 454.281551 148.583356 
L 456.552921 155.501338 
L 458.824292 141.434732 
L 461.095662 145.166993 
L 463.367033 136.175262 
L 465.638403 136.406639 
L 467.909774 126.594378 
L 470.181144 129.891183 
L 472.452514 122.096002 
L 474.723885 142.346851 
L 476.995255 144.560253 
L 479.266626 140.8241 
L 481.537996 147.60953 
L 483.809367 153.114509 
L 486.080737 149.748166 
L 488.352107 133.369707 
L 490.623478 133.724299 
L 492.894848 138.447395 
L 495.166219 132.481974 
L 497.437589 121.992741 
L 499.708959 114.473288 
L 501.98033 112.295775 
L 504.2517 116.183301 
L 506.523071 110.255947 
L 508.794441 108.406023 
L 511.065812 113.127 
L 513.337182 111.324554 
L 515.608552 108.762574 
L 517.879923 105.110569 
L 520.151293 99.90518 
L 522.422664 106.143452 
L 524.694034 118.182815 
L 526.965405 109.77103 
L 529.236775 112.037252 
L 531.508145 100.587318 
L 533.779516 94.342426 
L 536.050886 95.145633 
L 538.322257 93.640598 
L 540.593627 92.859741 
L 542.864997 101.727241 
L 545.136368 104.333463 
L 547.407738 117.395356 
L 549.679109 120.871337 
L 551.950479 123.71495 
L 554.22185 115.064732 
L 556.49322 130.664438 
L 558.76459 131.391311 
L 561.035961 148.661711 
L 563.307331 141.382508 
L 565.578702 126.53483 
L 567.850072 134.948897 
L 570.121443 137.002741 
L 572.392813 131.136235 
L 574.664183 120.388149 
L 576.935554 123.775357 
L 579.206924 114.415458 
L 581.478295 112.704424 
L 583.749665 111.532949 
L 586.021035 113.909528 
L 588.292406 110.317127 
L 590.563776 114.53428 
L 592.835147 116.242671 
L 595.106517 121.52457 
L 597.377888 112.885152 
L 599.649258 114.279264 
L 604.191999 112.316663 
L 606.463369 104.143887 
L 608.73474 105.030391 
L 611.00611 101.520289 
L 615.548851 107.365756 
L 617.820221 104.124034 
L 620.091592 113.142525 
L 622.362962 106.619155 
L 624.634333 105.028233 
L 626.905703 105.684309 
L 629.177073 102.415329 
L 631.448444 98.275502 
L 633.719814 99.200144 
L 635.991185 99.809589 
L 638.262555 101.32445 
L 640.533926 99.845394 
L 642.805296 93.547445 
L 645.076666 95.465397 
L 647.348037 99.264123 
L 649.619407 103.963617 
L 651.890778 95.104782 
L 654.162148 93.693757 
L 656.433518 94.694239 
L 658.704889 95.381424 
L 660.976259 97.83637 
L 663.24763 102.64925 
L 665.519 111.746765 
L 670.061741 90.595619 
L 672.333111 86.961906 
L 674.604482 82.278597 
L 676.875852 83.03391 
L 679.147223 85.440035 
L 681.418593 81.723001 
L 683.689964 80.149407 
L 685.961334 85.383769 
L 688.232704 85.772507 
L 690.504075 85.438652 
L 692.775445 89.512643 
L 695.046816 76.938555 
L 697.318186 83.776339 
L 699.589556 85.040204 
L 701.860927 83.284417 
L 704.132297 83.403484 
L 706.403668 84.018784 
L 708.675038 82.515478 
L 715.489149 98.733927 
L 717.76052 99.112571 
L 720.03189 95.105609 
L 722.303261 86.649585 
L 724.574631 76.772787 
L 726.846002 72.533368 
L 729.117372 76.469561 
L 731.388742 71.131776 
L 733.660113 70.695758 
L 735.931483 70.068365 
L 738.202854 69.062986 
L 740.474224 65.870813 
L 742.745594 65.898657 
L 745.016965 64.878727 
L 747.288335 66.452748 
L 749.559706 68.537973 
L 751.831076 69.908639 
L 754.102447 70.379906 
L 756.373817 69.022628 
L 758.645187 61.910489 
L 760.916558 63.684848 
L 763.187928 71.515239 
L 765.459299 77.836828 
L 767.730669 77.327404 
L 770.00204 67.912445 
L 772.27341 57.325131 
L 774.54478 56.932473 
L 776.816151 66.196511 
L 779.087521 84.605341 
L 781.358892 90.456181 
L 783.630262 95.134603 
L 785.901632 87.793396 
L 788.173003 97.107568 
L 790.444373 94.553116 
L 792.715744 91.110021 
L 794.987114 82.900102 
L 797.258485 84.816764 
L 799.529855 88.451716 
L 801.801225 88.507034 
L 804.072596 84.179483 
L 806.343966 72.799351 
L 808.615337 66.377847 
L 810.886707 67.112948 
L 813.158078 66.076475 
L 815.429448 74.587642 
L 817.700818 67.121192 
L 819.972189 67.033035 
L 822.243559 65.038981 
L 824.51493 63.514638 
L 826.7863 66.761051 
L 826.7863 66.761051 
" clip-path="url(#p5003b73425)" style="fill: none; stroke: #9467bd; stroke-width: 1.5; stroke-linecap: square"/>
   </g>
   <g id="line2d_20">
    <path d="M 68.14858 266.496997 
L 70.41995 266.659428 
L 72.69132 258.359006 
L 74.962691 260.254729 
L 77.234061 255.569782 
L 79.505432 252.087536 
L 81.776802 247.158099 
L 84.048172 254.781068 
L 86.319543 249.860853 
L 88.590913 247.456826 
L 90.862284 249.510251 
L 93.133654 250.196114 
L 95.405025 240.559495 
L 97.676395 243.164409 
L 99.947765 240.62754 
L 102.219136 250.518601 
L 104.490506 252.195863 
L 106.761877 243.39983 
L 109.033247 247.816685 
L 113.575988 241.240965 
L 115.847358 229.694565 
L 118.118729 226.4624 
L 120.390099 221.63832 
L 122.66147 219.283889 
L 124.93284 215.690693 
L 127.20421 219.041259 
L 129.475581 220.951042 
L 131.746951 230.87339 
L 134.018322 219.475341 
L 136.289692 217.78582 
L 138.561063 219.118552 
L 140.832433 215.82546 
L 143.103803 212.22428 
L 145.375174 215.064806 
L 147.646544 212.254508 
L 149.917915 207.788747 
L 152.189285 204.111162 
L 154.460656 202.535403 
L 156.732026 194.535135 
L 159.003396 198.965155 
L 161.274767 199.509734 
L 163.546137 194.978711 
L 165.817508 186.565167 
L 168.088878 180.979083 
L 170.360248 205.094249 
L 172.631619 210.910279 
L 174.902989 227.3561 
L 177.17436 219.626507 
L 179.44573 232.08923 
L 181.717101 236.290503 
L 183.988471 229.847478 
L 186.259841 225.995536 
L 188.531212 232.905071 
L 190.802582 242.386515 
L 193.073953 250.72705 
L 195.345323 246.399498 
L 197.616694 237.785233 
L 199.888064 249.304641 
L 202.159434 246.90736 
L 204.430805 238.102011 
L 206.702175 229.774682 
L 208.973546 232.189867 
L 211.244916 227.040118 
L 213.516286 215.851128 
L 215.787657 227.62091 
L 218.059027 217.117726 
L 220.330398 226.756974 
L 222.601768 217.350133 
L 224.873139 213.772315 
L 227.144509 207.64347 
L 229.415879 194.728463 
L 231.68725 193.715869 
L 233.95862 199.437838 
L 236.229991 200.770805 
L 238.501361 202.925093 
L 240.772732 212.116988 
L 243.044102 210.50514 
L 245.315472 216.156726 
L 247.586843 215.321946 
L 249.858213 213.094322 
L 252.129584 216.334457 
L 254.400954 211.191129 
L 256.672324 226.341231 
L 258.943695 217.718214 
L 261.215065 234.142554 
L 263.486436 230.908693 
L 265.757806 222.345331 
L 268.029177 205.638196 
L 270.300547 196.139087 
L 272.571917 196.994858 
L 274.843288 213.240971 
L 277.114658 215.052672 
L 279.386029 202.625131 
L 281.657399 208.538726 
L 283.92877 205.259365 
L 286.20014 203.052413 
L 288.47151 205.865637 
L 290.742881 212.004524 
L 293.014251 208.582163 
L 295.285622 207.207188 
L 297.556992 209.259978 
L 299.828362 206.341134 
L 302.099733 205.325054 
L 304.371103 202.306325 
L 306.642474 201.054893 
L 308.913844 191.960568 
L 311.185215 195.439025 
L 313.456585 197.171781 
L 315.727955 200.19021 
L 317.999326 195.345304 
L 320.270696 194.267768 
L 322.542067 204.296272 
L 324.813437 202.778045 
L 327.084807 205.166783 
L 329.356178 201.705872 
L 331.627548 195.043903 
L 333.898919 191.407466 
L 336.170289 183.871541 
L 338.44166 186.003022 
L 340.71303 187.429323 
L 342.9844 186.575665 
L 345.255771 190.469125 
L 347.527141 188.882261 
L 349.798512 183.184122 
L 352.069882 181.356563 
L 354.341253 182.060811 
L 356.612623 180.476423 
L 358.883993 188.295948 
L 361.155364 183.906618 
L 363.426734 187.592395 
L 365.698105 178.89833 
L 367.969475 175.569818 
L 370.240845 183.80829 
L 372.512216 185.60571 
L 374.783586 182.373198 
L 377.054957 189.134263 
L 379.326327 190.529606 
L 381.597698 187.517897 
L 383.869068 168.31193 
L 386.140438 165.012534 
L 388.411809 166.751551 
L 390.683179 161.922696 
L 392.95455 161.096403 
L 395.22592 175.091406 
L 397.497291 177.579437 
L 399.768661 186.628661 
L 402.040031 177.32694 
L 404.311402 169.698838 
L 406.582772 177.426974 
L 408.854143 169.468694 
L 411.125513 169.042881 
L 413.396883 170.313018 
L 415.668254 166.820892 
L 417.939624 166.514079 
L 420.210995 167.996269 
L 422.482365 166.953471 
L 424.753736 171.910031 
L 427.025106 173.27154 
L 429.296476 172.562082 
L 431.567847 176.451736 
L 433.839217 188.581847 
L 436.110588 187.030378 
L 438.381958 190.037574 
L 440.653329 204.829446 
L 442.924699 204.980552 
L 445.196069 192.608146 
L 447.46744 197.871716 
L 449.73881 213.408887 
L 452.010181 219.710563 
L 454.281551 209.51104 
L 456.552921 219.971607 
L 458.824292 206.90747 
L 461.095662 207.3154 
L 463.367033 198.628296 
L 465.638403 200.963049 
L 467.909774 193.871616 
L 470.181144 193.048847 
L 472.452514 193.028023 
L 474.723885 207.696071 
L 476.995255 203.193994 
L 479.266626 194.046137 
L 481.537996 194.593353 
L 483.809367 203.738618 
L 486.080737 204.019901 
L 488.352107 197.206054 
L 490.623478 195.762182 
L 492.894848 199.029236 
L 495.166219 194.99626 
L 499.708959 182.638457 
L 501.98033 179.728444 
L 504.2517 179.511313 
L 506.523071 174.565078 
L 508.794441 170.006079 
L 511.065812 170.136523 
L 513.337182 165.624818 
L 515.608552 169.848153 
L 517.879923 162.342432 
L 520.151293 159.562948 
L 522.422664 159.742 
L 524.694034 161.620255 
L 526.965405 161.356691 
L 529.236775 163.04603 
L 531.508145 157.949654 
L 533.779516 157.698335 
L 536.050886 159.196225 
L 538.322257 160.865076 
L 540.593627 157.491689 
L 542.864997 160.375782 
L 545.136368 160.761289 
L 547.407738 170.708869 
L 549.679109 174.026021 
L 551.950479 169.789535 
L 554.22185 166.971788 
L 556.49322 176.855902 
L 558.76459 178.941124 
L 561.035961 191.030888 
L 563.307331 186.575417 
L 565.578702 177.662436 
L 567.850072 179.980208 
L 570.121443 181.515607 
L 572.392813 182.87219 
L 574.664183 170.953296 
L 576.935554 175.069094 
L 579.206924 172.097925 
L 581.478295 172.498549 
L 583.749665 170.428609 
L 586.021035 173.215236 
L 588.292406 172.052582 
L 590.563776 173.967758 
L 592.835147 173.215256 
L 595.106517 177.456902 
L 597.377888 172.005253 
L 599.649258 171.365489 
L 601.920628 167.888261 
L 604.191999 170.173542 
L 606.463369 166.730667 
L 608.73474 163.902952 
L 611.00611 158.886414 
L 613.27748 162.757065 
L 615.548851 164.449642 
L 617.820221 157.800101 
L 620.091592 162.867705 
L 622.362962 159.1805 
L 624.634333 154.979232 
L 626.905703 155.336381 
L 629.177073 153.473767 
L 631.448444 150.507988 
L 633.719814 145.704729 
L 635.991185 143.244906 
L 638.262555 143.56553 
L 640.533926 140.258135 
L 642.805296 134.754693 
L 645.076666 130.993412 
L 647.348037 127.775529 
L 649.619407 132.363467 
L 651.890778 125.842825 
L 654.162148 127.955094 
L 656.433518 126.61722 
L 658.704889 121.178024 
L 660.976259 122.044445 
L 663.24763 126.750699 
L 665.519 131.81645 
L 667.790371 123.696264 
L 670.061741 126.825276 
L 672.333111 122.44078 
L 674.604482 119.071562 
L 676.875852 124.980056 
L 679.147223 125.65083 
L 681.418593 124.709701 
L 683.689964 123.100337 
L 685.961334 128.969018 
L 690.504075 126.968724 
L 692.775445 127.402605 
L 695.046816 122.865568 
L 697.318186 126.192926 
L 699.589556 126.369804 
L 701.860927 128.21108 
L 704.132297 128.094525 
L 706.403668 126.983706 
L 708.675038 126.631407 
L 710.946409 124.507479 
L 713.217779 127.827214 
L 715.489149 132.599695 
L 717.76052 128.5791 
L 720.03189 123.55282 
L 722.303261 121.078464 
L 724.574631 117.395163 
L 726.846002 117.221121 
L 729.117372 121.716166 
L 731.388742 119.075101 
L 733.660113 110.975405 
L 735.931483 111.409773 
L 738.202854 108.027268 
L 740.474224 107.104795 
L 742.745594 106.736859 
L 745.016965 107.199943 
L 747.288335 107.510436 
L 749.559706 108.810137 
L 751.831076 114.558857 
L 754.102447 118.959157 
L 756.373817 122.872966 
L 758.645187 120.262354 
L 760.916558 118.056408 
L 763.187928 122.825152 
L 765.459299 133.287095 
L 767.730669 131.954268 
L 770.00204 125.015779 
L 772.27341 121.558034 
L 774.54478 121.200275 
L 776.816151 127.216722 
L 779.087521 139.660173 
L 781.358892 135.230234 
L 783.630262 137.787889 
L 785.901632 138.669928 
L 788.173003 147.106006 
L 790.444373 140.314947 
L 792.715744 135.606133 
L 794.987114 130.545981 
L 797.258485 134.707178 
L 799.529855 140.467387 
L 801.801225 140.693281 
L 804.072596 136.510505 
L 806.343966 129.390813 
L 808.615337 126.489718 
L 810.886707 121.225033 
L 815.429448 117.672706 
L 817.700818 111.252894 
L 819.972189 112.551497 
L 822.243559 111.613333 
L 824.51493 111.131061 
L 826.7863 114.451462 
L 826.7863 114.451462 
" clip-path="url(#p5003b73425)" style="fill: none; stroke: #8c564b; stroke-width: 1.5; stroke-linecap: square"/>
   </g>
   <g id="line2d_21">
    <path d="M 68.14858 272.541114 
L 70.41995 269.782798 
L 72.69132 258.238233 
L 74.962691 261.763199 
L 77.234061 255.479874 
L 79.505432 251.609683 
L 81.776802 248.010279 
L 84.048172 258.31968 
L 86.319543 254.475032 
L 88.590913 253.939564 
L 90.862284 257.251839 
L 93.133654 256.425759 
L 95.405025 242.913266 
L 97.676395 248.153821 
L 99.947765 246.494609 
L 102.219136 259.271715 
L 104.490506 263.563332 
L 106.761877 255.141701 
L 109.033247 261.389335 
L 111.304618 255.643671 
L 113.575988 253.330561 
L 115.847358 244.947676 
L 118.118729 238.377695 
L 120.390099 236.55202 
L 122.66147 235.279401 
L 124.93284 229.042346 
L 127.20421 234.665151 
L 129.475581 237.052699 
L 131.746951 246.259901 
L 134.018322 233.857992 
L 136.289692 232.948659 
L 138.561063 233.561619 
L 140.832433 228.096031 
L 143.103803 223.231963 
L 145.375174 226.771937 
L 147.646544 219.796399 
L 149.917915 216.356836 
L 152.189285 213.229944 
L 154.460656 209.018484 
L 156.732026 198.004055 
L 159.003396 200.019974 
L 161.274767 196.951222 
L 163.546137 191.893815 
L 165.817508 183.872453 
L 168.088878 178.250121 
L 170.360248 206.836102 
L 172.631619 213.407846 
L 174.902989 237.797332 
L 177.17436 223.372022 
L 179.44573 234.0165 
L 181.717101 236.954481 
L 183.988471 228.572069 
L 186.259841 221.477629 
L 188.531212 229.900162 
L 190.802582 237.238513 
L 193.073953 243.578172 
L 195.345323 241.674146 
L 197.616694 232.596382 
L 199.888064 248.142383 
L 202.159434 245.362049 
L 204.430805 234.148174 
L 206.702175 224.754685 
L 208.973546 226.582124 
L 211.244916 222.394014 
L 213.516286 215.122102 
L 215.787657 229.543885 
L 218.059027 218.38686 
L 220.330398 227.977171 
L 222.601768 218.645305 
L 224.873139 216.54265 
L 227.144509 208.840582 
L 229.415879 192.888551 
L 231.68725 193.106101 
L 233.95862 197.413113 
L 236.229991 201.234884 
L 238.501361 203.278109 
L 240.772732 212.869754 
L 243.044102 210.954676 
L 245.315472 211.503777 
L 247.586843 211.6121 
L 249.858213 210.306025 
L 252.129584 218.586779 
L 254.400954 214.428556 
L 256.672324 234.516749 
L 258.943695 225.358399 
L 261.215065 238.471484 
L 263.486436 237.07076 
L 265.757806 228.477378 
L 268.029177 206.587332 
L 270.300547 193.330661 
L 272.571917 192.745912 
L 274.843288 204.237197 
L 277.114658 213.312724 
L 279.386029 201.483267 
L 281.657399 204.380309 
L 283.92877 199.505663 
L 286.20014 196.179283 
L 288.47151 197.759671 
L 290.742881 201.404873 
L 293.014251 197.41006 
L 295.285622 200.888326 
L 297.556992 200.910343 
L 299.828362 193.254073 
L 302.099733 190.065516 
L 304.371103 185.398272 
L 306.642474 184.953066 
L 308.913844 176.718153 
L 311.185215 176.670592 
L 313.456585 176.198552 
L 315.727955 173.497 
L 317.999326 170.503116 
L 320.270696 168.774755 
L 322.542067 180.711676 
L 324.813437 179.077964 
L 327.084807 180.2374 
L 329.356178 176.4152 
L 331.627548 170.527326 
L 333.898919 167.346251 
L 336.170289 163.651769 
L 338.44166 164.262965 
L 340.71303 166.373102 
L 342.9844 165.170965 
L 345.255771 168.007674 
L 347.527141 165.459383 
L 349.798512 159.829525 
L 352.069882 159.62565 
L 354.341253 159.5433 
L 356.612623 157.653335 
L 358.883993 166.179333 
L 361.155364 161.43593 
L 363.426734 169.319469 
L 365.698105 155.394796 
L 367.969475 148.101339 
L 370.240845 157.027604 
L 372.512216 157.485582 
L 374.783586 153.894994 
L 377.054957 157.194928 
L 379.326327 161.367685 
L 381.597698 152.886153 
L 383.869068 139.679709 
L 386.140438 134.900184 
L 388.411809 136.599475 
L 390.683179 131.452279 
L 392.95455 131.148422 
L 395.22592 147.773272 
L 397.497291 143.859476 
L 399.768661 156.019666 
L 402.040031 141.773549 
L 404.311402 132.648697 
L 406.582772 135.01556 
L 408.854143 128.035206 
L 411.125513 126.138619 
L 413.396883 122.128841 
L 415.668254 122.478452 
L 417.939624 123.879219 
L 420.210995 120.396954 
L 422.482365 117.166985 
L 424.753736 118.661111 
L 427.025106 121.922299 
L 429.296476 124.661264 
L 431.567847 127.159329 
L 433.839217 142.881468 
L 436.110588 144.159806 
L 438.381958 139.42694 
L 440.653329 160.294125 
L 442.924699 156.721555 
L 445.196069 140.274177 
L 447.46744 150.093908 
L 449.73881 166.678249 
L 452.010181 176.336376 
L 454.281551 167.330856 
L 456.552921 183.59857 
L 458.824292 161.783348 
L 461.095662 163.651296 
L 463.367033 150.404343 
L 465.638403 155.495207 
L 467.909774 149.099171 
L 470.181144 146.028183 
L 472.452514 143.822064 
L 474.723885 162.01896 
L 476.995255 158.590835 
L 479.266626 148.924366 
L 481.537996 151.950416 
L 483.809367 161.590052 
L 486.080737 162.398974 
L 488.352107 153.653233 
L 490.623478 154.242412 
L 492.894848 157.290049 
L 495.166219 148.707246 
L 497.437589 138.223512 
L 499.708959 126.394011 
L 501.98033 127.261503 
L 504.2517 125.577607 
L 506.523071 119.33307 
L 508.794441 115.521878 
L 511.065812 116.654007 
L 513.337182 109.294026 
L 515.608552 117.333879 
L 517.879923 107.545841 
L 520.151293 106.853628 
L 522.422664 112.764852 
L 524.694034 117.096547 
L 526.965405 111.554759 
L 529.236775 119.16351 
L 531.508145 111.277779 
L 533.779516 107.547174 
L 536.050886 110.448172 
L 538.322257 113.031253 
L 540.593627 110.011352 
L 542.864997 114.830525 
L 545.136368 117.518403 
L 547.407738 128.749436 
L 549.679109 130.568059 
L 554.22185 121.045132 
L 556.49322 136.921823 
L 558.76459 137.265758 
L 561.035961 152.662023 
L 563.307331 147.927393 
L 565.578702 135.422881 
L 567.850072 138.9549 
L 570.121443 143.148342 
L 572.392813 142.2575 
L 574.664183 130.976713 
L 576.935554 134.60295 
L 579.206924 124.474547 
L 581.478295 123.770852 
L 583.749665 121.788862 
L 586.021035 123.765606 
L 588.292406 122.503566 
L 590.563776 123.909149 
L 592.835147 122.975605 
L 595.106517 129.409526 
L 597.377888 118.793215 
L 599.649258 117.378816 
L 601.920628 117.027829 
L 604.191999 116.848164 
L 606.463369 110.445119 
L 608.73474 108.773995 
L 611.00611 103.053875 
L 613.27748 107.360026 
L 615.548851 109.447287 
L 617.820221 101.485828 
L 620.091592 106.515885 
L 622.362962 102.65623 
L 624.634333 96.791276 
L 626.905703 96.62305 
L 629.177073 92.584203 
L 631.448444 93.499255 
L 633.719814 85.581788 
L 635.991185 83.478272 
L 638.262555 84.268703 
L 640.533926 84.037521 
L 642.805296 76.658188 
L 645.076666 74.072011 
L 647.348037 73.007267 
L 649.619407 76.899949 
L 651.890778 72.322537 
L 654.162148 70.041549 
L 656.433518 70.189048 
L 658.704889 69.048533 
L 660.976259 73.705199 
L 663.24763 78.694791 
L 665.519 84.520139 
L 667.790371 76.632645 
L 670.061741 71.594201 
L 672.333111 67.299058 
L 674.604482 59.741824 
L 676.875852 59.118286 
L 679.147223 66.559284 
L 681.418593 63.86745 
L 683.689964 62.534929 
L 685.961334 66.430234 
L 688.232704 66.266437 
L 690.504075 61.959855 
L 692.775445 60.992425 
L 695.046816 56.666019 
L 697.318186 59.848814 
L 699.589556 58.802991 
L 701.860927 62.30508 
L 704.132297 63.442069 
L 706.403668 60.746235 
L 708.675038 58.645816 
L 710.946409 58.465721 
L 715.489149 70.92091 
L 717.76052 67.573372 
L 720.03189 60.588158 
L 722.303261 50.889522 
L 724.574631 48.914155 
L 726.846002 48.419195 
L 729.117372 52.399946 
L 731.388742 45.599643 
L 733.660113 38.019531 
L 735.931483 39.013837 
L 738.202854 37.734166 
L 740.474224 38.056513 
L 742.745594 35.915973 
L 745.016965 34.907605 
L 747.288335 37.325555 
L 749.559706 39.958819 
L 751.831076 45.256181 
L 754.102447 45.531398 
L 756.373817 47.80357 
L 758.645187 42.491673 
L 760.916558 41.946529 
L 763.187928 49.980232 
L 765.459299 64.127659 
L 767.730669 63.441639 
L 770.00204 56.891912 
L 772.27341 50.723962 
L 774.54478 50.147126 
L 776.816151 55.645267 
L 779.087521 74.779232 
L 781.358892 75.545883 
L 783.630262 78.331935 
L 785.901632 73.829391 
L 788.173003 87.909476 
L 790.444373 79.01314 
L 792.715744 74.935547 
L 794.987114 69.194312 
L 797.258485 72.557675 
L 799.529855 77.270244 
L 801.801225 79.543319 
L 804.072596 74.589892 
L 806.343966 62.356167 
L 808.615337 58.194891 
L 810.886707 51.414885 
L 813.158078 46.578554 
L 815.429448 47.547747 
L 817.700818 43.105535 
L 819.972189 49.029058 
L 822.243559 42.022256 
L 824.51493 40.027495 
L 826.7863 38.314572 
L 829.05767 30.398437 
L 829.05767 30.398437 
" clip-path="url(#p5003b73425)" style="fill: none; stroke: #e377c2; stroke-width: 1.5; stroke-linecap: square"/>
   </g>
   <g id="patch_3">
    <path d="M 30.103125 294.998437 
L 30.103125 17.798437 
" style="fill: none; stroke: #000000; stroke-width: 0.8; stroke-linejoin: miter; stroke-linecap: square"/>
   </g>
   <g id="patch_4">
    <path d="M 867.103125 294.998437 
L 867.103125 17.798437 
" style="fill: none; stroke: #000000; stroke-width: 0.8; stroke-linejoin: miter; stroke-linecap: square"/>
   </g>
   <g id="patch_5">
    <path d="M 30.103125 294.998437 
L 867.103125 294.998437 
" style="fill: none; stroke: #000000; stroke-width: 0.8; stroke-linejoin: miter; stroke-linecap: square"/>
   </g>
   <g id="patch_6">
    <path d="M 30.103125 17.798437 
L 867.103125 17.798437 
" style="fill: none; stroke: #000000; stroke-width: 0.8; stroke-linejoin: miter; stroke-linecap: square"/>
   </g>
   <g id="legend_1">
    <g id="patch_7">
     <path d="M 37.103125 128.545312 
L 94.496875 128.545312 
Q 96.496875 128.545312 96.496875 126.545312 
L 96.496875 24.798437 
Q 96.496875 22.798437 94.496875 22.798437 
L 37.103125 22.798437 
Q 35.103125 22.798437 35.103125 24.798437 
L 35.103125 126.545312 
Q 35.103125 128.545312 37.103125 128.545312 
z
" style="fill: #ffffff; opacity: 0.8; stroke: #cccccc; stroke-linejoin: miter"/>
    </g>
    <g id="line2d_22">
     <path d="M 39.103125 30.896875 
L 49.103125 30.896875 
L 59.103125 30.896875 
" style="fill: none; stroke: #1f77b4; stroke-width: 1.5; stroke-linecap: square"/>
    </g>
    <g id="text_16">
     <!-- a2c -->
     <g transform="translate(67.103125 34.396875) scale(0.1 -0.1)">
      <defs>
       <path id="DejaVuSans-63" d="M 3122 3366 
L 3122 2828 
Q 2878 2963 2633 3030 
Q 2388 3097 2138 3097 
Q 1578 3097 1268 2742 
Q 959 2388 959 1747 
Q 959 1106 1268 751 
Q 1578 397 2138 397 
Q 2388 397 2633 464 
Q 2878 531 3122 666 
L 3122 134 
Q 2881 22 2623 -34 
Q 2366 -91 2075 -91 
Q 1284 -91 818 406 
Q 353 903 353 1747 
Q 353 2603 823 3093 
Q 1294 3584 2113 3584 
Q 2378 3584 2631 3529 
Q 2884 3475 3122 3366 
z
" transform="scale(0.015625)"/>
      </defs>
      <use xlink:href="#DejaVuSans-61"/>
      <use xlink:href="#DejaVuSans-32" transform="translate(61.279297 0)"/>
      <use xlink:href="#DejaVuSans-63" transform="translate(124.902344 0)"/>
     </g>
    </g>
    <g id="line2d_23">
     <path d="M 39.103125 45.575 
L 49.103125 45.575 
L 59.103125 45.575 
" style="fill: none; stroke: #ff7f0e; stroke-width: 1.5; stroke-linecap: square"/>
    </g>
    <g id="text_17">
     <!-- ddpg -->
     <g transform="translate(67.103125 49.075) scale(0.1 -0.1)">
      <defs>
       <path id="DejaVuSans-70" d="M 1159 525 
L 1159 -1331 
L 581 -1331 
L 581 3500 
L 1159 3500 
L 1159 2969 
Q 1341 3281 1617 3432 
Q 1894 3584 2278 3584 
Q 2916 3584 3314 3078 
Q 3713 2572 3713 1747 
Q 3713 922 3314 415 
Q 2916 -91 2278 -91 
Q 1894 -91 1617 61 
Q 1341 213 1159 525 
z
M 3116 1747 
Q 3116 2381 2855 2742 
Q 2594 3103 2138 3103 
Q 1681 3103 1420 2742 
Q 1159 2381 1159 1747 
Q 1159 1113 1420 752 
Q 1681 391 2138 391 
Q 2594 391 2855 752 
Q 3116 1113 3116 1747 
z
" transform="scale(0.015625)"/>
       <path id="DejaVuSans-67" d="M 2906 1791 
Q 2906 2416 2648 2759 
Q 2391 3103 1925 3103 
Q 1463 3103 1205 2759 
Q 947 2416 947 1791 
Q 947 1169 1205 825 
Q 1463 481 1925 481 
Q 2391 481 2648 825 
Q 2906 1169 2906 1791 
z
M 3481 434 
Q 3481 -459 3084 -895 
Q 2688 -1331 1869 -1331 
Q 1566 -1331 1297 -1286 
Q 1028 -1241 775 -1147 
L 775 -588 
Q 1028 -725 1275 -790 
Q 1522 -856 1778 -856 
Q 2344 -856 2625 -561 
Q 2906 -266 2906 331 
L 2906 616 
Q 2728 306 2450 153 
Q 2172 0 1784 0 
Q 1141 0 747 490 
Q 353 981 353 1791 
Q 353 2603 747 3093 
Q 1141 3584 1784 3584 
Q 2172 3584 2450 3431 
Q 2728 3278 2906 2969 
L 2906 3500 
L 3481 3500 
L 3481 434 
z
" transform="scale(0.015625)"/>
      </defs>
      <use xlink:href="#DejaVuSans-64"/>
      <use xlink:href="#DejaVuSans-64" transform="translate(63.476562 0)"/>
      <use xlink:href="#DejaVuSans-70" transform="translate(126.953125 0)"/>
      <use xlink:href="#DejaVuSans-67" transform="translate(190.429688 0)"/>
     </g>
    </g>
    <g id="line2d_24">
     <path d="M 39.103125 60.253125 
L 49.103125 60.253125 
L 59.103125 60.253125 
" style="fill: none; stroke: #2ca02c; stroke-width: 1.5; stroke-linecap: square"/>
    </g>
    <g id="text_18">
     <!-- ppo -->
     <g transform="translate(67.103125 63.753125) scale(0.1 -0.1)">
      <defs>
       <path id="DejaVuSans-6f" d="M 1959 3097 
Q 1497 3097 1228 2736 
Q 959 2375 959 1747 
Q 959 1119 1226 758 
Q 1494 397 1959 397 
Q 2419 397 2687 759 
Q 2956 1122 2956 1747 
Q 2956 2369 2687 2733 
Q 2419 3097 1959 3097 
z
M 1959 3584 
Q 2709 3584 3137 3096 
Q 3566 2609 3566 1747 
Q 3566 888 3137 398 
Q 2709 -91 1959 -91 
Q 1206 -91 779 398 
Q 353 888 353 1747 
Q 353 2609 779 3096 
Q 1206 3584 1959 3584 
z
" transform="scale(0.015625)"/>
      </defs>
      <use xlink:href="#DejaVuSans-70"/>
      <use xlink:href="#DejaVuSans-70" transform="translate(63.476562 0)"/>
      <use xlink:href="#DejaVuSans-6f" transform="translate(126.953125 0)"/>
     </g>
    </g>
    <g id="line2d_25">
     <path d="M 39.103125 74.93125 
L 49.103125 74.93125 
L 59.103125 74.93125 
" style="fill: none; stroke: #d62728; stroke-width: 1.5; stroke-linecap: square"/>
    </g>
    <g id="text_19">
     <!-- td3 -->
     <g transform="translate(67.103125 78.43125) scale(0.1 -0.1)">
      <use xlink:href="#DejaVuSans-74"/>
      <use xlink:href="#DejaVuSans-64" transform="translate(39.208984 0)"/>
      <use xlink:href="#DejaVuSans-33" transform="translate(102.685547 0)"/>
     </g>
    </g>
    <g id="line2d_26">
     <path d="M 39.103125 89.609375 
L 49.103125 89.609375 
L 59.103125 89.609375 
" style="fill: none; stroke: #9467bd; stroke-width: 1.5; stroke-linecap: square"/>
    </g>
    <g id="text_20">
     <!-- sac -->
     <g transform="translate(67.103125 93.109375) scale(0.1 -0.1)">
      <defs>
       <path id="DejaVuSans-73" d="M 2834 3397 
L 2834 2853 
Q 2591 2978 2328 3040 
Q 2066 3103 1784 3103 
Q 1356 3103 1142 2972 
Q 928 2841 928 2578 
Q 928 2378 1081 2264 
Q 1234 2150 1697 2047 
L 1894 2003 
Q 2506 1872 2764 1633 
Q 3022 1394 3022 966 
Q 3022 478 2636 193 
Q 2250 -91 1575 -91 
Q 1294 -91 989 -36 
Q 684 19 347 128 
L 347 722 
Q 666 556 975 473 
Q 1284 391 1588 391 
Q 1994 391 2212 530 
Q 2431 669 2431 922 
Q 2431 1156 2273 1281 
Q 2116 1406 1581 1522 
L 1381 1569 
Q 847 1681 609 1914 
Q 372 2147 372 2553 
Q 372 3047 722 3315 
Q 1072 3584 1716 3584 
Q 2034 3584 2315 3537 
Q 2597 3491 2834 3397 
z
" transform="scale(0.015625)"/>
      </defs>
      <use xlink:href="#DejaVuSans-73"/>
      <use xlink:href="#DejaVuSans-61" transform="translate(52.099609 0)"/>
      <use xlink:href="#DejaVuSans-63" transform="translate(113.378906 0)"/>
     </g>
    </g>
    <g id="line2d_27">
     <path d="M 39.103125 104.2875 
L 49.103125 104.2875 
L 59.103125 104.2875 
" style="fill: none; stroke: #8c564b; stroke-width: 1.5; stroke-linecap: square"/>
    </g>
    <g id="text_21">
     <!-- mvo -->
     <g transform="translate(67.103125 107.7875) scale(0.1 -0.1)">
      <defs>
       <path id="DejaVuSans-6d" d="M 3328 2828 
Q 3544 3216 3844 3400 
Q 4144 3584 4550 3584 
Q 5097 3584 5394 3201 
Q 5691 2819 5691 2113 
L 5691 0 
L 5113 0 
L 5113 2094 
Q 5113 2597 4934 2840 
Q 4756 3084 4391 3084 
Q 3944 3084 3684 2787 
Q 3425 2491 3425 1978 
L 3425 0 
L 2847 0 
L 2847 2094 
Q 2847 2600 2669 2842 
Q 2491 3084 2119 3084 
Q 1678 3084 1418 2786 
Q 1159 2488 1159 1978 
L 1159 0 
L 581 0 
L 581 3500 
L 1159 3500 
L 1159 2956 
Q 1356 3278 1631 3431 
Q 1906 3584 2284 3584 
Q 2666 3584 2933 3390 
Q 3200 3197 3328 2828 
z
" transform="scale(0.015625)"/>
       <path id="DejaVuSans-76" d="M 191 3500 
L 800 3500 
L 1894 563 
L 2988 3500 
L 3597 3500 
L 2284 0 
L 1503 0 
L 191 3500 
z
" transform="scale(0.015625)"/>
      </defs>
      <use xlink:href="#DejaVuSans-6d"/>
      <use xlink:href="#DejaVuSans-76" transform="translate(97.412109 0)"/>
      <use xlink:href="#DejaVuSans-6f" transform="translate(156.591797 0)"/>
     </g>
    </g>
    <g id="line2d_28">
     <path d="M 39.103125 118.965625 
L 49.103125 118.965625 
L 59.103125 118.965625 
" style="fill: none; stroke: #e377c2; stroke-width: 1.5; stroke-linecap: square"/>
    </g>
    <g id="text_22">
     <!-- ndx -->
     <g transform="translate(67.103125 122.465625) scale(0.1 -0.1)">
      <defs>
       <path id="DejaVuSans-6e" d="M 3513 2113 
L 3513 0 
L 2938 0 
L 2938 2094 
Q 2938 2591 2744 2837 
Q 2550 3084 2163 3084 
Q 1697 3084 1428 2787 
Q 1159 2491 1159 1978 
L 1159 0 
L 581 0 
L 581 3500 
L 1159 3500 
L 1159 2956 
Q 1366 3272 1645 3428 
Q 1925 3584 2291 3584 
Q 2894 3584 3203 3211 
Q 3513 2838 3513 2113 
z
" transform="scale(0.015625)"/>
       <path id="DejaVuSans-78" d="M 3513 3500 
L 2247 1797 
L 3578 0 
L 2900 0 
L 1881 1375 
L 863 0 
L 184 0 
L 1544 1831 
L 300 3500 
L 978 3500 
L 1906 2253 
L 2834 3500 
L 3513 3500 
z
" transform="scale(0.015625)"/>
      </defs>
      <use xlink:href="#DejaVuSans-6e"/>
      <use xlink:href="#DejaVuSans-64" transform="translate(63.378906 0)"/>
      <use xlink:href="#DejaVuSans-78" transform="translate(126.855469 0)"/>
     </g>
    </g>
   </g>
  </g>
 </g>
 <defs>
  <clipPath id="p5003b73425">
   <rect x="30.103125" y="17.798437" width="837" height="277.2"/>
  </clipPath>
 </defs>
</svg>
